<?xml version="1.0" encoding="UTF-8"?>
<svg xmlns="http://www.w3.org/2000/svg" xmlns:xlink="http://www.w3.org/1999/xlink" width="200px" height="150px" viewBox="0 0 64 150" version="1.1">
<g id="surface1">
<path style="fill-rule:nonzero;fill:rgb(40.784314%,23.529412%,6.27451%);fill-opacity:1;stroke-width:1;stroke-linecap:butt;stroke-linejoin:miter;stroke:rgb(40.784314%,23.529412%,6.27451%);stroke-opacity:1;stroke-miterlimit:10;" d="M 0.000245591 0.00136285 C -1.206016 -20.825024 -4.660987 -37.413911 -4.660987 -37.413911 C 2.234063 -43.795953 1.764961 -47.746039 1.764961 -47.746039 L 1.385212 -138.207431 L -13.64838 -138.104257 C -40.811601 -138.435887 -29.23298 -178.872682 -29.23298 -178.872682 C -25.078079 -187.340311 -42.17423 -217.813456 -42.17423 -217.813456 C -42.17423 -217.813456 -50.454247 -232.788409 -44.53463 -253.135773 C -39.136238 -271.699704 -0.930512 -274.478029 5.741157 -274.824399 L 5.741157 -274.861246 C 5.741157 -274.861246 5.912416 -274.853877 6.240043 -274.846507 C 6.567669 -274.861246 6.738929 -274.868616 6.738929 -274.868616 L 6.738929 -274.831768 C 13.418043 -274.581203 51.653553 -272.348225 57.320004 -253.86536 C 63.530017 -233.60643 55.465935 -218.513564 55.465935 -218.513564 C 55.465935 -218.513564 38.801657 -187.797223 43.08314 -179.388552 C 43.08314 -179.388552 55.242554 -139.121257 28.079332 -138.399039 L 13.04574 -138.295866 L 13.954159 -47.841843 C 13.954159 -47.841843 13.544626 -43.877018 20.536475 -37.59815 C 20.536475 -37.59815 17.312332 -20.957676 16.403912 -0.11655 L 8.213248 -0.0575937 L 8.19091 -0.0575937 Z M 0.000245591 0.00136285 " transform="matrix(0.524606,0,0,-0.530052,28.570184,2.153066)"/>
<path style=" stroke:none;fill-rule:nonzero;fill:rgb(11.372549%,11.372549%,10.588235%);fill-opacity:1;" d="M 32.285156 94.527344 C 37.441406 94.566406 41.59375 98.820312 41.554688 104.03125 C 41.519531 109.238281 37.308594 113.433594 32.152344 113.394531 C 26.996094 113.359375 22.847656 109.105469 22.882812 103.894531 C 22.921875 98.6875 27.128906 94.492188 32.285156 94.527344 "/>
<path style="fill:none;stroke-width:5;stroke-linecap:butt;stroke-linejoin:miter;stroke:rgb(57.647061%,37.254903%,21.176471%);stroke-opacity:1;stroke-miterlimit:10;" d="M -0.00175894 0.00496253 C 9.827038 -0.0687331 17.742198 -8.094188 17.667738 -17.925185 C 17.600723 -27.748814 9.573872 -35.663725 -0.254925 -35.590029 C -10.083722 -35.523703 -17.991436 -27.498248 -17.924422 -17.667251 C -17.849961 -7.843623 -9.830556 0.0712886 -0.00175894 0.00496253 Z M -0.00175894 0.00496253 " transform="matrix(0.524606,0,0,-0.530052,32.286079,94.529974)"/>
<path style=" stroke:none;fill-rule:nonzero;fill:rgb(79.215688%,61.960787%,40.392157%);fill-opacity:1;" d="M 23.703125 133.085938 C 24.421875 132.898438 25.199219 132.863281 25.90625 132.898438 C 27.050781 132.953125 28.144531 133.351562 29.152344 133.914062 C 30.519531 134.671875 32.003906 134.636719 32.003906 134.636719 C 32.003906 134.636719 33.488281 134.695312 34.867188 133.953125 C 35.878906 133.40625 36.972656 133.023438 38.125 132.984375 C 38.796875 132.964844 39.542969 133.003906 40.230469 133.179688 C 40.503906 133.25 40.730469 133.078125 40.734375 132.792969 L 40.746094 130.734375 C 40.75 130.4375 40.507812 130.191406 40.214844 130.191406 L 32.035156 130.128906 L 23.699219 130.070312 C 23.488281 130.070312 23.316406 130.238281 23.316406 130.449219 C 23.3125 131.035156 23.304688 132.140625 23.300781 132.761719 C 23.296875 132.976562 23.496094 133.140625 23.703125 133.085938 "/>
<path style=" stroke:none;fill-rule:nonzero;fill:rgb(100%,100%,100%);fill-opacity:1;" d="M 29.394531 17.851562 C 30.003906 17.855469 30.496094 18.359375 30.492188 18.976562 C 30.488281 19.59375 29.988281 20.09375 29.375 20.089844 C 28.765625 20.082031 28.273438 19.578125 28.277344 18.960938 C 28.285156 18.34375 28.78125 17.847656 29.394531 17.851562 "/>
<path style=" stroke:none;fill-rule:nonzero;fill:rgb(100%,100%,100%);fill-opacity:1;" d="M 30.214844 11.933594 C 30.824219 11.9375 31.316406 12.441406 31.3125 13.058594 C 31.308594 13.675781 30.808594 14.175781 30.199219 14.171875 C 29.585938 14.167969 29.09375 13.660156 29.097656 13.042969 C 29.101562 12.425781 29.601562 11.929688 30.214844 11.933594 "/>
<path style=" stroke:none;fill-rule:nonzero;fill:rgb(100%,100%,100%);fill-opacity:1;" d="M 30.910156 6.207031 C 31.523438 6.210938 32.011719 6.714844 32.007812 7.332031 C 32.003906 7.949219 31.507812 8.449219 30.894531 8.441406 C 30.285156 8.4375 29.792969 7.933594 29.796875 7.316406 C 29.800781 6.699219 30.300781 6.203125 30.910156 6.207031 "/>
<path style=" stroke:none;fill-rule:nonzero;fill:rgb(100%,100%,100%);fill-opacity:1;" d="M 36.191406 17.898438 C 35.578125 17.894531 35.078125 18.394531 35.074219 19.011719 C 35.070312 19.628906 35.5625 20.132812 36.175781 20.136719 C 36.785156 20.140625 37.285156 19.644531 37.289062 19.027344 C 37.292969 18.410156 36.800781 17.902344 36.191406 17.898438 "/>
<path style=" stroke:none;fill-rule:nonzero;fill:rgb(100%,100%,100%);fill-opacity:1;" d="M 35.453125 11.96875 C 34.84375 11.964844 34.34375 12.464844 34.339844 13.082031 C 34.332031 13.699219 34.828125 14.203125 35.4375 14.207031 C 36.050781 14.210938 36.546875 13.714844 36.550781 13.097656 C 36.554688 12.480469 36.066406 11.976562 35.453125 11.96875 "/>
<path style=" stroke:none;fill-rule:nonzero;fill:rgb(100%,100%,100%);fill-opacity:1;" d="M 34.835938 6.234375 C 34.226562 6.230469 33.726562 6.726562 33.722656 7.347656 C 33.71875 7.964844 34.210938 8.46875 34.820312 8.472656 C 35.429688 8.476562 35.933594 7.976562 35.9375 7.359375 C 35.941406 6.746094 35.449219 6.238281 34.835938 6.234375 "/>
<path style=" stroke:none;fill-rule:nonzero;fill:rgb(100%,100%,100%);fill-opacity:1;" d="M 35.316406 131.800781 C 35.304688 132.339844 34.871094 132.765625 34.339844 132.757812 L 29.152344 132.667969 C 28.621094 132.660156 28.199219 132.21875 28.207031 131.683594 C 28.21875 131.148438 28.65625 130.71875 29.183594 130.730469 L 34.371094 130.816406 C 34.902344 130.824219 35.324219 131.265625 35.316406 131.800781 "/>
<path style=" stroke:none;fill-rule:nonzero;fill:rgb(79.215688%,61.960787%,40.392157%);fill-opacity:1;" d="M 36.167969 27.898438 L 35.519531 94.339844 C 35.511719 95.1875 34.820312 95.867188 33.980469 95.859375 L 30.09375 95.824219 C 29.25 95.816406 28.578125 95.117188 28.585938 94.269531 L 29.234375 27.828125 C 29.242188 26.980469 29.929688 26.296875 30.769531 26.304688 L 34.65625 26.34375 C 35.5 26.351562 36.175781 27.046875 36.167969 27.898438 "/>
<path style="fill:none;stroke-width:1;stroke-linecap:butt;stroke-linejoin:miter;stroke:rgb(57.647061%,37.254903%,21.176471%);stroke-opacity:1;stroke-miterlimit:10;" d="M -0.00364708 0.00189615 L 13.451381 -0.22656 " transform="matrix(0.524606,0,0,-0.530052,28.962851,49.090849)"/>
<path style="fill:none;stroke-width:1;stroke-linecap:butt;stroke-linejoin:miter;stroke:rgb(57.647061%,37.254903%,21.176471%);stroke-opacity:1;stroke-miterlimit:10;" d="M -0.00352841 0.00140164 L 13.451499 -0.227055 " transform="matrix(0.524606,0,0,-0.530052,28.880757,53.965587)"/>
<path style="fill:none;stroke-width:1;stroke-linecap:butt;stroke-linejoin:miter;stroke:rgb(57.647061%,37.254903%,21.176471%);stroke-opacity:1;stroke-miterlimit:10;" d="M 0.00208168 0.00220599 L 13.457109 -0.23362 " transform="matrix(0.524606,0,0,-0.530052,28.870002,58.587107)"/>
<path style="fill:none;stroke-width:1;stroke-linecap:butt;stroke-linejoin:miter;stroke:rgb(57.647061%,37.254903%,21.176471%);stroke-opacity:1;stroke-miterlimit:10;" d="M 0.00244235 0.00310201 L 13.45747 -0.232724 " transform="matrix(0.524606,0,0,-0.530052,28.865906,63.208675)"/>
<path style="fill:none;stroke-width:1;stroke-linecap:butt;stroke-linejoin:miter;stroke:rgb(57.647061%,37.254903%,21.176471%);stroke-opacity:1;stroke-miterlimit:10;" d="M 0.000880516 0.00109268 L 13.455908 -0.227364 " transform="matrix(0.524606,0,0,-0.530052,28.784694,68.094329)"/>
<path style="fill:none;stroke-width:1;stroke-linecap:butt;stroke-linejoin:miter;stroke:rgb(57.647061%,37.254903%,21.176471%);stroke-opacity:1;stroke-miterlimit:10;" d="M -0.00112522 0.000796948 L 13.453903 -0.22766 " transform="matrix(0.524606,0,0,-0.530052,28.633403,72.816829)"/>
<path style="fill:none;stroke-width:1;stroke-linecap:butt;stroke-linejoin:miter;stroke:rgb(57.647061%,37.254903%,21.176471%);stroke-opacity:1;stroke-miterlimit:10;" d="M 0.00339272 0.00145472 L 13.450974 -0.227002 " transform="matrix(0.524606,0,0,-0.530052,29.056814,30.426552)"/>
<path style="fill:none;stroke-width:1;stroke-linecap:butt;stroke-linejoin:miter;stroke:rgb(57.647061%,37.254903%,21.176471%);stroke-opacity:1;stroke-miterlimit:10;" d="M -0.00137736 -0.00324331 L 13.45365 -0.22433 " transform="matrix(0.524606,0,0,-0.530052,28.977285,35.209218)"/>
<path style="fill:none;stroke-width:1;stroke-linecap:butt;stroke-linejoin:miter;stroke:rgb(57.647061%,37.254903%,21.176471%);stroke-opacity:1;stroke-miterlimit:10;" d="M -0.00109552 0.00440863 L 13.453932 -0.231417 " transform="matrix(0.524606,0,0,-0.530052,29.051356,39.994524)"/>
<path style="fill:none;stroke-width:1;stroke-linecap:butt;stroke-linejoin:miter;stroke:rgb(57.647061%,37.254903%,21.176471%);stroke-opacity:1;stroke-miterlimit:10;" d="M 0.00160381 -0.00469607 L 13.449185 -0.225783 " transform="matrix(0.524606,0,0,-0.530052,29.006971,44.556105)"/>
<path style="fill:none;stroke-width:1;stroke-linecap:butt;stroke-linejoin:miter;stroke:rgb(57.647061%,37.254903%,21.176471%);stroke-opacity:1;stroke-miterlimit:10;" d="M -0.00121358 0.00508442 L 13.453814 -0.230742 " transform="matrix(0.524606,0,0,-0.530052,28.625637,77.541758)"/>
<path style="fill:none;stroke-width:1;stroke-linecap:butt;stroke-linejoin:miter;stroke:rgb(57.647061%,37.254903%,21.176471%);stroke-opacity:1;stroke-miterlimit:10;" d="M 0.00056727 -0.000731103 L 13.455595 -0.229188 " transform="matrix(0.524606,0,0,-0.530052,28.640327,82.233987)"/>
<path style="fill:none;stroke-width:1;stroke-linecap:butt;stroke-linejoin:miter;stroke:rgb(57.647061%,37.254903%,21.176471%);stroke-opacity:1;stroke-miterlimit:10;" d="M 0.000701223 -0.00125617 L 13.455729 -0.229713 " transform="matrix(0.524606,0,0,-0.530052,28.558226,87.108709)"/>
<path style="fill:none;stroke-width:1;stroke-linecap:butt;stroke-linejoin:miter;stroke:rgb(57.647061%,37.254903%,21.176471%);stroke-opacity:1;stroke-miterlimit:10;" d="M -0.00064954 0.00180577 L 13.454378 -0.226651 " transform="matrix(0.524606,0,0,-0.530052,28.664403,91.672832)"/>
<path style="fill:none;stroke-width:0.5;stroke-linecap:butt;stroke-linejoin:miter;stroke:rgb(100%,100%,100%);stroke-opacity:1;stroke-miterlimit:10;" d="M -0.000676086 0.00161766 L 1.912961 218.722892 C 1.920407 219.784109 1.979975 220.852696 2.076774 221.913913 L 3.446849 236.32141 " transform="matrix(0.524606,0,0,-0.530052,32.344105,132.391482)"/>
<path style="fill:none;stroke-width:0.5;stroke-linecap:butt;stroke-linejoin:miter;stroke:rgb(100%,100%,100%);stroke-opacity:1;stroke-miterlimit:10;" d="M 0.000445019 0.00216649 L 1.415196 214.441725 C 1.430088 217.603268 1.884298 220.735332 2.762933 223.764223 L 3.120344 225.009679 " transform="matrix(0.524606,0,0,-0.530052,33.523204,132.372242)"/>
<path style="fill:none;stroke-width:0.5;stroke-linecap:butt;stroke-linejoin:miter;stroke:rgb(100%,100%,100%);stroke-opacity:1;stroke-miterlimit:10;" d="M -0.00445462 -0.00219695 L 1.201807 205.601255 C 1.209253 207.554189 1.40285 209.499754 1.790045 211.41584 L 2.259147 213.796209 " transform="matrix(0.524606,0,0,-0.530052,34.654681,132.366023)"/>
<path style="fill:none;stroke-width:0.5;stroke-linecap:butt;stroke-linejoin:miter;stroke:rgb(100%,100%,100%);stroke-opacity:1;stroke-miterlimit:10;" d="M 0.00017493 0.00142027 L 1.474495 218.722695 C 1.481941 219.791282 1.44471 220.852499 1.362804 221.913716 L 0.208665 236.343321 " transform="matrix(0.524606,0,0,-0.530052,31.413971,132.360128)"/>
<path style="fill:none;stroke-width:0.5;stroke-linecap:butt;stroke-linejoin:miter;stroke:rgb(100%,100%,100%);stroke-opacity:1;stroke-miterlimit:10;" d="M -0.0017406 -0.0033239 L 1.911896 214.436234 C 1.941681 217.597777 1.532147 220.737211 0.705635 223.780841 L 0.363116 225.026297 " transform="matrix(0.524606,0,0,-0.530052,30.235288,132.322457)"/>
<path style="fill:none;stroke-width:0.5;stroke-linecap:butt;stroke-linejoin:miter;stroke:rgb(100%,100%,100%);stroke-opacity:1;stroke-miterlimit:10;" d="M 0.00274655 0.00316431 L 1.983398 205.599246 C 2.005736 207.552181 1.834477 209.497746 1.491958 211.413832 L 1.052641 213.801571 " transform="matrix(0.524606,0,0,-0.530052,29.104028,132.298552)"/>
</g>
</svg>
