<?xml version='1.0' encoding='utf-8'?>
<svg xmlns="http://www.w3.org/2000/svg" viewBox="39.441 165.270 205.949 102.246" width="206" height="102"><path fill-rule="nonzero" fill="rgb(82.35321%, 47.058105%, 6.666565%)" fill-opacity="1" d="M 120.773438 200.238281 L 110.898438 200.238281 L 110.898438 260.417969 C 110.898438 262.128906 112.28125 263.515625 113.992188 263.515625 L 117.679688 263.515625 C 119.390625 263.515625 120.773438 262.128906 120.773438 260.417969 Z M 120.773438 200.238281 " />
<path fill-rule="nonzero" fill="rgb(98.823547%, 89.804077%, 62.745667%)" fill-opacity="1" d="M 118.375 196.867188 L 117.355469 196.867188 L 117.355469 194.367188 L 119.523438 194.367188 C 120.484375 194.367188 121.269531 193.582031 121.269531 192.621094 C 121.269531 191.664062 120.484375 190.878906 119.523438 190.878906 L 112.148438 190.878906 C 111.1875 190.878906 110.402344 191.664062 110.402344 192.621094 C 110.402344 193.582031 111.1875 194.367188 112.148438 194.367188 L 114.316406 194.367188 L 114.316406 196.867188 L 113.296875 196.867188 C 111.769531 196.867188 110.53125 198.105469 110.53125 199.632812 L 110.53125 200.765625 L 121.140625 200.765625 L 121.140625 199.632812 C 121.140625 198.105469 119.898438 196.867188 118.375 196.867188 " />
<path fill="none" stroke-width="0.25" stroke-linecap="butt" stroke-linejoin="miter" stroke="rgb(57.647705%, 37.254333%, 21.176147%)" stroke-opacity="1" stroke-miterlimit="10" d="M 0.00177271 -0.00175453 L -1.018999 -0.00175453 L -1.018999 2.501286 L 1.151607 2.501286 C 2.113713 2.501286 2.899824 3.287397 2.899824 4.249503 C 2.899824 5.207699 2.113713 5.99381 1.151607 5.99381 L -6.232363 5.99381 C -7.194469 5.99381 -7.98058 5.207699 -7.98058 4.249503 C -7.98058 3.287397 -7.194469 2.501286 -6.232363 2.501286 L -4.061757 2.501286 L -4.061757 -0.00175453 L -5.082529 -0.00175453 C -6.61173 -0.00175453 -7.851517 -1.241542 -7.851517 -2.770743 L -7.851517 -3.904933 L 2.770761 -3.904933 L 2.770761 -2.770743 C 2.770761 -1.241542 1.527063 -0.00175453 0.00177271 -0.00175453 Z M 0.00177271 -0.00175453 " transform="matrix(0.998785, 0, 0, -0.998785, 118.373229, 196.865435)" />
<path fill-rule="nonzero" fill="rgb(82.35321%, 47.058105%, 6.666565%)" fill-opacity="1" d="M 106.988281 200.238281 L 97.109375 200.238281 L 97.109375 260.417969 C 97.109375 262.128906 98.496094 263.515625 100.207031 263.515625 L 103.894531 263.515625 C 105.605469 263.515625 106.988281 262.128906 106.988281 260.417969 Z M 106.988281 200.238281 " />
<path fill-rule="nonzero" fill="rgb(98.823547%, 89.804077%, 62.745667%)" fill-opacity="1" d="M 104.585938 196.867188 L 103.570312 196.867188 L 103.570312 194.367188 L 105.738281 194.367188 C 106.695312 194.367188 107.484375 193.582031 107.484375 192.621094 C 107.484375 191.664062 106.695312 190.878906 105.738281 190.878906 L 98.363281 190.878906 C 97.402344 190.878906 96.617188 191.664062 96.617188 192.621094 C 96.617188 193.582031 97.402344 194.367188 98.363281 194.367188 L 100.53125 194.367188 L 100.53125 196.867188 L 99.511719 196.867188 C 97.984375 196.867188 96.746094 198.105469 96.746094 199.632812 L 96.746094 200.765625 L 107.351562 200.765625 L 107.351562 199.632812 C 107.351562 198.105469 106.113281 196.867188 104.585938 196.867188 " />
<path fill="none" stroke-width="0.25" stroke-linecap="butt" stroke-linejoin="miter" stroke="rgb(57.647705%, 37.254333%, 21.176147%)" stroke-opacity="1" stroke-miterlimit="10" d="M -0.00186063 -0.00175453 L -1.018721 -0.00175453 L -1.018721 2.501286 L 1.151885 2.501286 C 2.11008 2.501286 2.900102 3.287397 2.900102 4.249503 C 2.900102 5.207699 2.11008 5.99381 1.151885 5.99381 L -6.232085 5.99381 C -7.194191 5.99381 -7.980303 5.207699 -7.980303 4.249503 C -7.980303 3.287397 -7.194191 2.501286 -6.232085 2.501286 L -4.06148 2.501286 L -4.06148 -0.00175453 L -5.082251 -0.00175453 C -6.611452 -0.00175453 -7.85124 -1.241542 -7.85124 -2.770743 L -7.85124 -3.904933 L 2.767128 -3.904933 L 2.767128 -2.770743 C 2.767128 -1.241542 1.527341 -0.00175453 -0.00186063 -0.00175453 Z M -0.00186063 -0.00175453 " transform="matrix(0.998785, 0, 0, -0.998785, 104.587796, 196.865435)" />
<path fill-rule="nonzero" fill="rgb(82.35321%, 47.058105%, 6.666565%)" fill-opacity="1" d="M 134.734375 200.238281 L 124.859375 200.238281 L 124.859375 260.417969 C 124.859375 262.128906 126.242188 263.515625 127.953125 263.515625 L 131.640625 263.515625 C 133.351562 263.515625 134.734375 262.128906 134.734375 260.417969 Z M 134.734375 200.238281 " />
<path fill-rule="nonzero" fill="rgb(98.823547%, 89.804077%, 62.745667%)" fill-opacity="1" d="M 132.335938 196.867188 L 131.316406 196.867188 L 131.316406 194.367188 L 133.484375 194.367188 C 134.445312 194.367188 135.230469 193.582031 135.230469 192.621094 C 135.230469 191.664062 134.445312 190.878906 133.484375 190.878906 L 126.109375 190.878906 C 125.148438 190.878906 124.363281 191.664062 124.363281 192.621094 C 124.363281 193.582031 125.148438 194.367188 126.109375 194.367188 L 128.277344 194.367188 L 128.277344 196.867188 L 127.257812 196.867188 C 125.730469 196.867188 124.492188 198.105469 124.492188 199.632812 L 124.492188 200.765625 L 135.101562 200.765625 L 135.101562 199.632812 C 135.101562 198.105469 133.863281 196.867188 132.335938 196.867188 " />
<path fill="none" stroke-width="0.25" stroke-linecap="butt" stroke-linejoin="miter" stroke="rgb(57.647705%, 37.254333%, 21.176147%)" stroke-opacity="1" stroke-miterlimit="10" d="M 0.0016901 -0.00175453 L -1.019081 -0.00175453 L -1.019081 2.501286 L 1.151524 2.501286 C 2.113631 2.501286 2.899742 3.287397 2.899742 4.249503 C 2.899742 5.207699 2.113631 5.99381 1.151524 5.99381 L -6.232445 5.99381 C -7.194552 5.99381 -7.980663 5.207699 -7.980663 4.249503 C -7.980663 3.287397 -7.194552 2.501286 -6.232445 2.501286 L -4.06184 2.501286 L -4.06184 -0.00175453 L -5.082611 -0.00175453 C -6.611813 -0.00175453 -7.8516 -1.241542 -7.8516 -2.770743 L -7.8516 -3.904933 L 2.770679 -3.904933 L 2.770679 -2.770743 C 2.770679 -1.241542 1.530891 -0.00175453 0.0016901 -0.00175453 Z M 0.0016901 -0.00175453 " transform="matrix(0.998785, 0, 0, -0.998785, 132.334249, 196.865435)" />
<path fill-rule="nonzero" fill="rgb(95.294189%, 57.255554%, 0%)" fill-opacity="1" d="M 170.410156 226.308594 C 170.410156 230.230469 169.746094 234.148438 168.207031 237.757812 C 162.753906 250.53125 151.046875 250.246094 151.046875 250.246094 L 92.300781 250.246094 C 92.042969 250.246094 91.777344 250.234375 91.523438 250.199219 C 81.597656 248.917969 76.722656 241.636719 74.566406 236.890625 C 73.570312 234.707031 73.078125 232.335938 73.078125 229.933594 L 73.078125 211.128906 L 170.410156 211.128906 Z M 233.679688 173.722656 C 221.21875 190.152344 201.441406 196.53125 191.246094 198.824219 C 187.753906 199.609375 184.191406 200 180.609375 200 L 50.34375 200 L 50.34375 211.128906 L 64.042969 210.996094 L 64.304688 233.914062 C 66.808594 253.277344 84.71875 255.910156 84.71875 255.910156 L 155.578125 255.910156 C 174.675781 253.144531 176.660156 233.113281 176.660156 233.113281 L 176.785156 211.269531 L 183.003906 211.359375 C 184.613281 211.386719 186.21875 211.527344 187.808594 211.785156 C 216.746094 216.53125 234.339844 237.460938 234.339844 237.460938 C 239.871094 200.121094 233.679688 173.722656 233.679688 173.722656 " />
<path fill="none" stroke-width="1" stroke-linecap="butt" stroke-linejoin="miter" stroke="rgb(82.745361%, 43.920898%, 9.411621%)" stroke-opacity="1" stroke-miterlimit="10" d="M 0.00111633 0.000331329 C 0.00111633 -3.926314 -0.663754 -7.849048 -2.204688 -11.462812 C -7.664446 -24.251786 -19.385715 -23.966282 -19.385715 -23.966282 L -78.203259 -23.966282 C -78.461385 -23.966282 -78.727333 -23.954549 -78.981548 -23.91935 C -88.919401 -22.636542 -93.80033 -15.346436 -95.959203 -10.59457 C -96.956508 -8.408321 -97.449294 -6.034343 -97.449294 -3.629078 L -97.449294 15.198481 L 0.00111633 15.198481 Z M 63.347599 52.650226 C 50.871506 36.200556 31.070108 29.813892 20.862395 27.518134 C 17.365961 26.732023 13.799128 26.340923 10.21274 26.340923 L -120.21132 26.340923 L -120.21132 15.198481 L -106.495439 15.331455 L -106.233402 -7.614388 C -103.726451 -27.001219 -85.794511 -29.637234 -85.794511 -29.637234 L -14.848954 -29.637234 C 4.271929 -26.868245 6.258718 -6.812632 6.258718 -6.812632 L 6.38387 15.057685 L 12.610183 14.967732 C 14.221516 14.940355 15.828937 14.799559 17.420715 14.541433 C 46.39341 9.789567 64.008558 -11.165576 64.008558 -11.165576 C 69.546535 26.219682 63.347599 52.650226 63.347599 52.650226 Z M 63.347599 52.650226 " transform="matrix(0.998785, 0, 0, -0.998785, 170.409041, 226.308925)" />
<path fill-rule="nonzero" fill="rgb(82.35321%, 47.058105%, 6.666565%)" fill-opacity="1" d="M 232.535156 171.875 C 233.367188 177.683594 238.203125 214.058594 232.457031 239.078125 C 232.203125 240.179688 232.8125 241.613281 233.960938 241.589844 C 233.988281 241.589844 234.015625 241.617188 234.042969 241.609375 C 235.976562 241.082031 236.195312 238.984375 236.324219 237.488281 C 236.378906 236.8125 236.453125 236.144531 236.546875 235.476562 C 237.457031 228.976562 241.390625 197.234375 235.480469 170.6875 C 235.480469 170.6875 234.449219 169.269531 233.273438 170.074219 C 232.699219 170.46875 232.4375 171.183594 232.535156 171.875 " />
<path fill-rule="nonzero" fill="rgb(82.35321%, 47.058105%, 6.666565%)" fill-opacity="1" d="M 47.390625 214.816406 C 45.207031 214.816406 43.441406 213.046875 43.441406 210.867188 L 43.441406 199.671875 C 43.441406 197.488281 45.207031 195.71875 47.390625 195.71875 C 49.574219 195.71875 51.34375 197.488281 51.34375 199.671875 L 51.34375 210.867188 C 51.34375 213.046875 49.574219 214.816406 47.390625 214.816406 " />
</svg>