<?xml version='1.0' encoding='utf-8'?>
<svg xmlns="http://www.w3.org/2000/svg" viewBox="37.004 47.586 205.953 102.242" width="206" height="102"><path fill-rule="nonzero" fill="rgb(82.35321%, 47.058105%, 6.666565%)" fill-opacity="1" d="M 118.339844 82.554688 L 108.460938 82.554688 L 108.460938 142.734375 C 108.460938 144.445312 109.847656 145.828125 111.558594 145.828125 L 115.246094 145.828125 C 116.953125 145.828125 118.339844 144.445312 118.339844 142.734375 Z M 118.339844 82.554688 " />
<path fill-rule="nonzero" fill="rgb(98.823547%, 89.804077%, 62.745667%)" fill-opacity="1" d="M 115.9375 79.179688 L 114.921875 79.179688 L 114.921875 76.683594 L 117.089844 76.683594 C 118.046875 76.683594 118.832031 75.898438 118.832031 74.9375 C 118.832031 73.976562 118.046875 73.191406 117.089844 73.191406 L 109.714844 73.191406 C 108.753906 73.191406 107.96875 73.976562 107.96875 74.9375 C 107.96875 75.898438 108.753906 76.683594 109.714844 76.683594 L 111.878906 76.683594 L 111.878906 79.179688 L 110.863281 79.179688 C 109.335938 79.179688 108.097656 80.417969 108.097656 81.945312 L 108.097656 83.078125 L 118.703125 83.078125 L 118.703125 81.945312 C 118.703125 80.417969 117.464844 79.179688 115.9375 79.179688 " />
<path fill="none" stroke-width="0.25" stroke-linecap="butt" stroke-linejoin="miter" stroke="rgb(57.647705%, 37.254333%, 21.176147%)" stroke-opacity="1" stroke-miterlimit="10" d="M -0.000891879 0.000782015 L -1.017752 0.000782015 L -1.017752 2.499912 L 1.152853 2.499912 C 2.111049 2.499912 2.89716 3.286023 2.89716 4.248129 C 2.89716 5.210235 2.111049 5.996346 1.152853 5.996346 L -6.231116 5.996346 C -7.193223 5.996346 -7.979334 5.210235 -7.979334 4.248129 C -7.979334 3.286023 -7.193223 2.499912 -6.231116 2.499912 L -4.064422 2.499912 L -4.064422 0.000782015 L -5.081282 0.000782015 C -6.610483 0.000782015 -7.850271 -1.239005 -7.850271 -2.768207 L -7.850271 -3.902397 L 2.768097 -3.902397 L 2.768097 -2.768207 C 2.768097 -1.239005 1.528309 0.000782015 -0.000891879 0.000782015 Z M -0.000891879 0.000782015 " transform="matrix(0.998785, 0, 0, -0.998785, 115.938391, 79.180469)" />
<path fill-rule="nonzero" fill="rgb(82.35321%, 47.058105%, 6.666565%)" fill-opacity="1" d="M 104.554688 82.554688 L 94.675781 82.554688 L 94.675781 142.734375 C 94.675781 144.445312 96.0625 145.828125 97.769531 145.828125 L 101.457031 145.828125 C 103.167969 145.828125 104.554688 144.445312 104.554688 142.734375 Z M 104.554688 82.554688 " />
<path fill-rule="nonzero" fill="rgb(98.823547%, 89.804077%, 62.745667%)" fill-opacity="1" d="M 102.152344 79.179688 L 101.136719 79.179688 L 101.136719 76.683594 L 103.300781 76.683594 C 104.261719 76.683594 105.046875 75.898438 105.046875 74.9375 C 105.046875 73.976562 104.261719 73.191406 103.300781 73.191406 L 95.925781 73.191406 C 94.96875 73.191406 94.183594 73.976562 94.183594 74.9375 C 94.183594 75.898438 94.96875 76.683594 95.925781 76.683594 L 98.09375 76.683594 L 98.09375 79.179688 L 97.078125 79.179688 C 95.550781 79.179688 94.3125 80.417969 94.3125 81.945312 L 94.3125 83.078125 L 104.917969 83.078125 L 104.917969 81.945312 C 104.917969 80.417969 103.679688 79.179688 102.152344 79.179688 " />
<path fill="none" stroke-width="0.25" stroke-linecap="butt" stroke-linejoin="miter" stroke="rgb(57.647705%, 37.254333%, 21.176147%)" stroke-opacity="1" stroke-miterlimit="10" d="M -0.000614223 0.000782015 L -1.017474 0.000782015 L -1.017474 2.499912 L 1.14922 2.499912 C 2.111326 2.499912 2.897437 3.286023 2.897437 4.248129 C 2.897437 5.210235 2.111326 5.996346 1.14922 5.996346 L -6.23475 5.996346 C -7.192945 5.996346 -7.979056 5.210235 -7.979056 4.248129 C -7.979056 3.286023 -7.192945 2.499912 -6.23475 2.499912 L -4.064144 2.499912 L -4.064144 0.000782015 L -5.081004 0.000782015 C -6.610206 0.000782015 -7.849993 -1.239005 -7.849993 -2.768207 L -7.849993 -3.902397 L 2.768374 -3.902397 L 2.768374 -2.768207 C 2.768374 -1.239005 1.528587 0.000782015 -0.000614223 0.000782015 Z M -0.000614223 0.000782015 " transform="matrix(0.998785, 0, 0, -0.998785, 102.152957, 79.180469)" />
<path fill-rule="nonzero" fill="rgb(82.35321%, 47.058105%, 6.666565%)" fill-opacity="1" d="M 132.300781 82.554688 L 122.421875 82.554688 L 122.421875 142.734375 C 122.421875 144.445312 123.808594 145.828125 125.519531 145.828125 L 129.207031 145.828125 C 130.914062 145.828125 132.300781 144.445312 132.300781 142.734375 Z M 132.300781 82.554688 " />
<path fill-rule="nonzero" fill="rgb(98.823547%, 89.804077%, 62.745667%)" fill-opacity="1" d="M 129.898438 79.179688 L 128.882812 79.179688 L 128.882812 76.683594 L 131.050781 76.683594 C 132.007812 76.683594 132.792969 75.898438 132.792969 74.9375 C 132.792969 73.976562 132.007812 73.191406 131.050781 73.191406 L 123.675781 73.191406 C 122.714844 73.191406 121.929688 73.976562 121.929688 74.9375 C 121.929688 75.898438 122.714844 76.683594 123.675781 76.683594 L 125.839844 76.683594 L 125.839844 79.179688 L 124.824219 79.179688 C 123.296875 79.179688 122.058594 80.417969 122.058594 81.945312 L 122.058594 83.078125 L 132.664062 83.078125 L 132.664062 81.945312 C 132.664062 80.417969 131.425781 79.179688 129.898438 79.179688 " />
<path fill="none" stroke-width="0.25" stroke-linecap="butt" stroke-linejoin="miter" stroke="rgb(57.647705%, 37.254333%, 21.176147%)" stroke-opacity="1" stroke-miterlimit="10" d="M -0.000974493 0.000782015 L -1.017835 0.000782015 L -1.017835 2.499912 L 1.152771 2.499912 C 2.110966 2.499912 2.897077 3.286023 2.897077 4.248129 C 2.897077 5.210235 2.110966 5.996346 1.152771 5.996346 L -6.231199 5.996346 C -7.193305 5.996346 -7.979416 5.210235 -7.979416 4.248129 C -7.979416 3.286023 -7.193305 2.499912 -6.231199 2.499912 L -4.064504 2.499912 L -4.064504 0.000782015 L -5.081365 0.000782015 C -6.610566 0.000782015 -7.850353 -1.239005 -7.850353 -2.768207 L -7.850353 -3.902397 L 2.768014 -3.902397 L 2.768014 -2.768207 C 2.768014 -1.239005 1.528227 0.000782015 -0.000974493 0.000782015 Z M -0.000974493 0.000782015 " transform="matrix(0.998785, 0, 0, -0.998785, 129.899411, 79.180469)" />
<path fill-rule="nonzero" fill="rgb(95.294189%, 57.255554%, 0%)" fill-opacity="1" d="M 167.972656 108.625 C 167.972656 112.546875 167.308594 116.464844 165.769531 120.070312 C 160.316406 132.847656 148.613281 132.5625 148.613281 132.5625 L 89.863281 132.5625 C 89.605469 132.5625 89.34375 132.546875 89.089844 132.515625 C 79.164062 131.230469 74.289062 123.953125 72.128906 119.207031 C 71.136719 117.019531 70.640625 114.648438 70.640625 112.25 L 70.640625 93.445312 L 167.972656 93.445312 Z M 231.246094 56.039062 C 218.78125 72.46875 199.007812 78.847656 188.8125 81.140625 C 185.316406 81.925781 181.753906 82.316406 178.175781 82.316406 L 47.910156 82.316406 L 47.910156 93.445312 L 61.605469 93.3125 L 61.871094 116.230469 C 64.371094 135.589844 82.285156 138.226562 82.285156 138.226562 L 153.144531 138.226562 C 172.242188 135.460938 174.226562 115.429688 174.226562 115.429688 L 174.351562 93.585938 L 180.570312 93.675781 C 182.175781 93.699219 183.785156 93.839844 185.371094 94.101562 C 214.3125 98.847656 231.90625 119.777344 231.90625 119.777344 C 237.4375 82.4375 231.246094 56.039062 231.246094 56.039062 " />
<path fill="none" stroke-width="1" stroke-linecap="butt" stroke-linejoin="miter" stroke="rgb(57.647705%, 37.254333%, 21.176147%)" stroke-opacity="1" stroke-miterlimit="10" d="M -0.00154826 -0.00104313 C -0.00154826 -3.927688 -0.666418 -7.850422 -2.207353 -11.460276 C -7.66711 -24.25316 -19.384469 -23.967657 -19.384469 -23.967657 L -78.205923 -23.967657 C -78.464049 -23.967657 -78.726086 -23.952013 -78.980301 -23.920725 C -88.918155 -22.634006 -93.799084 -15.347811 -95.961868 -10.595945 C -96.955262 -8.405784 -97.451959 -6.031807 -97.451959 -3.630452 L -97.451959 15.197107 L -0.00154826 15.197107 Z M 63.348845 52.648852 C 50.868841 36.199182 31.071354 29.812517 20.863642 27.51676 C 17.363296 26.730648 13.796463 26.339548 10.213986 26.339548 L -120.210073 26.339548 L -120.210073 15.197107 L -106.498104 15.330081 L -106.232156 -7.615762 C -103.729115 -26.998683 -85.793265 -29.638608 -85.793265 -29.638608 L -14.847708 -29.638608 C 4.273176 -26.86962 6.259964 -6.814007 6.259964 -6.814007 L 6.385116 15.056311 L 12.61143 14.966357 C 14.218851 14.942891 15.830184 14.802095 17.41805 14.540058 C 46.394656 9.788192 64.009804 -11.166951 64.009804 -11.166951 C 69.547782 26.218307 63.348845 52.648852 63.348845 52.648852 Z M 63.348845 52.648852 " transform="matrix(0.998785, 0, 0, -0.998785, 167.974203, 108.623958)" />
<path fill-rule="nonzero" fill="rgb(82.35321%, 47.058105%, 6.666565%)" fill-opacity="1" d="M 230.101562 54.191406 C 230.933594 60 235.765625 96.371094 230.019531 121.394531 C 229.769531 122.496094 230.378906 123.925781 231.523438 123.90625 C 231.554688 123.90625 231.582031 123.933594 231.609375 123.925781 C 233.539062 123.398438 233.757812 121.296875 233.886719 119.800781 C 233.945312 119.128906 234.015625 118.460938 234.109375 117.789062 C 235.019531 111.292969 238.957031 79.546875 233.046875 53 C 233.046875 53 232.015625 51.585938 230.839844 52.390625 C 230.261719 52.785156 230.003906 53.5 230.101562 54.191406 " />
<path fill-rule="nonzero" fill="rgb(82.35321%, 47.058105%, 6.666565%)" fill-opacity="1" d="M 44.957031 97.132812 C 42.773438 97.132812 41.003906 95.363281 41.003906 93.179688 L 41.003906 81.984375 C 41.003906 79.804688 42.773438 78.035156 44.957031 78.035156 C 47.136719 78.035156 48.90625 79.804688 48.90625 81.984375 L 48.90625 93.179688 C 48.90625 95.363281 47.136719 97.132812 44.957031 97.132812 " />
</svg>