<?xml version='1.0' encoding='utf-8'?>
<svg xmlns="http://www.w3.org/2000/svg" viewBox="417.473 294.086 121.848 282.535" width="122" height="283"><path fill-rule="nonzero" fill="rgb(26.274109%, 16.470337%, 9.411621%)" fill-opacity="1" d="M 471.867188 298.085938 C 470.664062 318.886719 467.210938 335.457031 467.210938 335.457031 C 474.101562 341.832031 473.632812 345.777344 473.632812 345.777344 L 473.25 436.128906 L 458.238281 436.023438 C 431.101562 436.355469 442.667969 476.742188 442.667969 476.742188 C 446.820312 485.199219 429.746094 515.636719 429.746094 515.636719 C 429.746094 515.636719 421.472656 530.589844 427.386719 550.917969 C 432.78125 569.457031 470.933594 572.230469 477.597656 572.578125 L 477.597656 572.613281 C 477.597656 572.613281 477.773438 572.609375 478.097656 572.601562 C 478.425781 572.617188 478.597656 572.621094 478.597656 572.621094 L 478.597656 572.582031 C 485.269531 572.335938 523.457031 570.105469 529.117188 551.644531 C 535.320312 531.40625 527.261719 516.332031 527.261719 516.332031 C 527.261719 516.332031 510.621094 485.65625 514.894531 477.257812 C 514.894531 477.257812 527.039062 437.039062 499.910156 436.320312 L 484.894531 436.214844 L 485.804688 345.867188 C 485.804688 345.867188 485.394531 341.910156 492.375 335.640625 C 492.375 335.640625 489.15625 319.019531 488.253906 298.203125 L 480.066406 298.144531 L 480.050781 298.144531 Z M 471.867188 298.085938 " />
<path fill-rule="nonzero" fill="rgb(11.372375%, 11.372375%, 10.588074%)" fill-opacity="1" d="M 478.941406 472.152344 C 488.757812 472.222656 496.660156 480.238281 496.589844 490.054688 C 496.519531 499.875 488.503906 507.773438 478.6875 507.703125 C 468.871094 507.632812 460.96875 499.621094 461.039062 489.800781 C 461.109375 479.984375 469.125 472.082031 478.941406 472.152344 " />
<path fill="none" stroke-width="5" stroke-linecap="butt" stroke-linejoin="miter" stroke="rgb(57.647705%, 37.254333%, 21.176147%)" stroke-opacity="1" stroke-miterlimit="10" d="M 0.000315167 0.0014757 C 9.828661 -0.0689223 17.740615 -8.094296 17.670217 -17.922642 C 17.599819 -27.754898 9.574445 -35.662942 -0.2539 -35.592544 C -10.082245 -35.522146 -17.9942 -27.500683 -17.923802 -17.668427 C -17.853404 -7.840081 -9.82803 0.0718737 0.000315167 0.0014757 Z M 0.000315167 0.0014757 " transform="matrix(0.998785, 0, 0, -0.998785, 478.941091, 472.153818)" />
<path fill-rule="nonzero" fill="rgb(79.216003%, 61.961365%, 40.391541%)" fill-opacity="1" d="M 462.601562 544.804688 C 463.96875 544.453125 465.449219 544.386719 466.792969 544.449219 C 468.976562 544.554688 471.054688 545.304688 472.96875 546.363281 C 475.574219 547.796875 478.402344 547.730469 478.402344 547.730469 C 478.402344 547.730469 481.226562 547.835938 483.851562 546.441406 C 485.78125 545.410156 487.867188 544.6875 490.054688 544.617188 C 491.339844 544.574219 492.753906 544.652344 494.066406 544.984375 C 494.589844 545.117188 495.019531 544.785156 495.023438 544.25 L 495.050781 540.375 C 495.054688 539.8125 494.597656 539.351562 494.035156 539.347656 L 478.460938 539.234375 L 462.589844 539.121094 C 462.191406 539.121094 461.863281 539.4375 461.863281 539.839844 C 461.855469 540.9375 461.839844 543.027344 461.832031 544.195312 C 461.828125 544.601562 462.207031 544.90625 462.601562 544.804688 " />
<path fill-rule="nonzero" fill="rgb(100%, 100%, 100%)" fill-opacity="1" d="M 473.433594 327.667969 C 474.597656 327.675781 475.535156 328.625 475.527344 329.789062 C 475.515625 330.953125 474.566406 331.890625 473.402344 331.882812 C 472.238281 331.871094 471.304688 330.921875 471.3125 329.757812 C 471.320312 328.597656 472.269531 327.660156 473.433594 327.667969 " />
<path fill-rule="nonzero" fill="rgb(100%, 100%, 100%)" fill-opacity="1" d="M 474.996094 316.515625 C 476.160156 316.523438 477.09375 317.472656 477.085938 318.636719 C 477.078125 319.800781 476.128906 320.738281 474.964844 320.730469 C 473.800781 320.722656 472.863281 319.769531 472.871094 318.609375 C 472.878906 317.445312 473.832031 316.507812 474.996094 316.515625 " />
<path fill-rule="nonzero" fill="rgb(100%, 100%, 100%)" fill-opacity="1" d="M 476.324219 305.726562 C 477.488281 305.734375 478.421875 306.683594 478.414062 307.847656 C 478.40625 309.011719 477.457031 309.949219 476.292969 309.941406 C 475.128906 309.929688 474.191406 308.980469 474.199219 307.816406 C 474.207031 306.652344 475.160156 305.714844 476.324219 305.726562 " />
<path fill-rule="nonzero" fill="rgb(100%, 100%, 100%)" fill-opacity="1" d="M 486.375 327.757812 C 485.210938 327.75 484.257812 328.6875 484.25 329.851562 C 484.242188 331.015625 485.179688 331.964844 486.34375 331.972656 C 487.507812 331.980469 488.457031 331.046875 488.464844 329.882812 C 488.472656 328.71875 487.535156 327.765625 486.375 327.757812 " />
<path fill-rule="nonzero" fill="rgb(100%, 100%, 100%)" fill-opacity="1" d="M 484.972656 316.585938 C 483.808594 316.578125 482.855469 317.515625 482.847656 318.679688 C 482.839844 319.84375 483.777344 320.792969 484.941406 320.800781 C 486.105469 320.808594 487.054688 319.871094 487.0625 318.710938 C 487.070312 317.546875 486.136719 316.59375 484.972656 316.585938 " />
<path fill-rule="nonzero" fill="rgb(100%, 100%, 100%)" fill-opacity="1" d="M 483.796875 305.777344 C 482.632812 305.769531 481.683594 306.707031 481.675781 307.871094 C 481.667969 309.035156 482.605469 309.984375 483.765625 309.992188 C 484.929688 310 485.878906 309.0625 485.890625 307.898438 C 485.898438 306.738281 484.960938 305.785156 483.796875 305.777344 " />
<path fill-rule="nonzero" fill="rgb(100%, 100%, 100%)" fill-opacity="1" d="M 484.707031 542.386719 C 484.691406 543.398438 483.859375 544.203125 482.851562 544.183594 L 472.972656 544.019531 C 471.964844 544.003906 471.160156 543.171875 471.175781 542.160156 C 471.191406 541.152344 472.023438 540.347656 473.035156 540.363281 L 482.910156 540.53125 C 483.921875 540.546875 484.726562 541.378906 484.707031 542.386719 " />
<path fill-rule="nonzero" fill="rgb(79.216003%, 61.961365%, 40.391541%)" fill-opacity="1" d="M 486.328125 346.597656 L 485.097656 471.792969 C 485.078125 473.390625 483.769531 474.675781 482.167969 474.660156 L 474.765625 474.589844 C 473.164062 474.574219 471.882812 473.261719 471.894531 471.660156 L 473.128906 346.46875 C 473.144531 344.867188 474.453125 343.582031 476.054688 343.597656 L 483.457031 343.671875 C 485.058594 343.6875 486.34375 344.996094 486.328125 346.597656 " />
<path fill="none" stroke-width="1" stroke-linecap="butt" stroke-linejoin="miter" stroke="rgb(57.647705%, 37.254333%, 21.176147%)" stroke-opacity="1" stroke-miterlimit="10" d="M -0.000706368 0.000905467 L 13.453137 -0.229844 " transform="matrix(0.998785, 0, 0, -0.998785, 472.613987, 386.532154)" />
<path fill="none" stroke-width="1" stroke-linecap="butt" stroke-linejoin="miter" stroke="rgb(57.647705%, 37.254333%, 21.176147%)" stroke-opacity="1" stroke-miterlimit="10" d="M -0.000646406 -0.00116876 L 13.453197 -0.228007 " transform="matrix(0.998785, 0, 0, -0.998785, 472.457677, 395.717583)" />
<path fill="none" stroke-width="1" stroke-linecap="butt" stroke-linejoin="miter" stroke="rgb(57.647705%, 37.254333%, 21.176147%)" stroke-opacity="1" stroke-miterlimit="10" d="M 0.00029859 0.000210127 L 13.454142 -0.230539 " transform="matrix(0.998785, 0, 0, -0.998785, 472.437202, 404.425991)" />
<path fill="none" stroke-width="1" stroke-linecap="butt" stroke-linejoin="miter" stroke="rgb(57.647705%, 37.254333%, 21.176147%)" stroke-opacity="1" stroke-miterlimit="10" d="M 0.000176588 0.00178901 L 13.45402 -0.22896 " transform="matrix(0.998785, 0, 0, -0.998785, 472.429511, 413.134599)" />
<path fill="none" stroke-width="1" stroke-linecap="butt" stroke-linejoin="miter" stroke="rgb(57.647705%, 37.254333%, 21.176147%)" stroke-opacity="1" stroke-miterlimit="10" d="M -0.00136345 0.000859782 L 13.45248 -0.229889 " transform="matrix(0.998785, 0, 0, -0.998785, 472.274799, 422.340702)" />
<path fill="none" stroke-width="1" stroke-linecap="butt" stroke-linejoin="miter" stroke="rgb(57.647705%, 37.254333%, 21.176147%)" stroke-opacity="1" stroke-miterlimit="10" d="M 0.00143348 0.00109962 L 13.451366 -0.229649 " transform="matrix(0.998785, 0, 0, -0.998785, 471.98685, 431.23938)" />
<path fill="none" stroke-width="1" stroke-linecap="butt" stroke-linejoin="miter" stroke="rgb(57.647705%, 37.254333%, 21.176147%)" stroke-opacity="1" stroke-miterlimit="10" d="M -0.000000324219 -0.000653003 L 13.453843 -0.227491 " transform="matrix(0.998785, 0, 0, -0.998785, 472.792969, 351.362629)" />
<path fill="none" stroke-width="1" stroke-linecap="butt" stroke-linejoin="miter" stroke="rgb(57.647705%, 37.254333%, 21.176147%)" stroke-opacity="1" stroke-miterlimit="10" d="M -0.000929361 -0.000232189 L 13.452914 -0.22707 " transform="matrix(0.998785, 0, 0, -0.998785, 472.641553, 360.374768)" />
<path fill="none" stroke-width="1" stroke-linecap="butt" stroke-linejoin="miter" stroke="rgb(57.647705%, 37.254333%, 21.176147%)" stroke-opacity="1" stroke-miterlimit="10" d="M -0.00123333 0.00117762 L 13.45261 -0.229571 " transform="matrix(0.998785, 0, 0, -0.998785, 472.782482, 369.391801)" />
<path fill="none" stroke-width="1" stroke-linecap="butt" stroke-linejoin="miter" stroke="rgb(57.647705%, 37.254333%, 21.176147%)" stroke-opacity="1" stroke-miterlimit="10" d="M 0.00123565 -0.00103546 L 13.451168 -0.227874 " transform="matrix(0.998785, 0, 0, -0.998785, 472.697985, 377.987247)" />
<path fill="none" stroke-width="1" stroke-linecap="butt" stroke-linejoin="miter" stroke="rgb(57.647705%, 37.254333%, 21.176147%)" stroke-opacity="1" stroke-miterlimit="10" d="M 0.000689477 -0.00188254 L 13.454533 -0.228721 " transform="matrix(0.998785, 0, 0, -0.998785, 471.971968, 440.142651)" />
<path fill="none" stroke-width="1" stroke-linecap="butt" stroke-linejoin="miter" stroke="rgb(57.647705%, 37.254333%, 21.176147%)" stroke-opacity="1" stroke-miterlimit="10" d="M 0.0000664834 -0.000177681 L 13.45391 -0.230927 " transform="matrix(0.998785, 0, 0, -0.998785, 471.999934, 448.984198)" />
<path fill="none" stroke-width="1" stroke-linecap="butt" stroke-linejoin="miter" stroke="rgb(57.647705%, 37.254333%, 21.176147%)" stroke-opacity="1" stroke-miterlimit="10" d="M 0.000126446 0.00175909 L 13.45397 -0.22899 " transform="matrix(0.998785, 0, 0, -0.998785, 471.843624, 458.169726)" />
<path fill="none" stroke-width="1" stroke-linecap="butt" stroke-linejoin="miter" stroke="rgb(57.647705%, 37.254333%, 21.176147%)" stroke-opacity="1" stroke-miterlimit="10" d="M 0.00109849 0.000535005 L 13.454942 -0.230214 " transform="matrix(0.998785, 0, 0, -0.998785, 472.045778, 466.770066)" />
<path fill="none" stroke-width="0.5" stroke-linecap="butt" stroke-linejoin="miter" stroke="rgb(100%, 100%, 100%)" stroke-opacity="1" stroke-miterlimit="10" d="M -0.000676806 0.000654395 L 1.911803 218.719471 C 1.923536 219.787175 1.97829 220.850967 2.079976 221.910848 L 3.448826 236.318976 " transform="matrix(0.998785, 0, 0, -0.998785, 479.051457, 543.496747)" />
<path fill="none" stroke-width="0.5" stroke-linecap="butt" stroke-linejoin="miter" stroke="rgb(100%, 100%, 100%)" stroke-opacity="1" stroke-miterlimit="10" d="M 0.000548738 -0.000346596 L 1.41242 214.443746 C 1.431975 217.599924 1.885651 220.732636 2.761715 223.763662 L 3.121527 225.00736 " transform="matrix(0.998785, 0, 0, -0.998785, 481.296327, 543.460591)" />
<path fill="none" stroke-width="0.5" stroke-linecap="butt" stroke-linejoin="miter" stroke="rgb(100%, 100%, 100%)" stroke-opacity="1" stroke-miterlimit="10" d="M -0.00128974 -0.000413593 L 1.199388 205.604817 C 1.211121 207.556407 1.406671 209.500174 1.789949 211.412654 L 2.259269 213.794453 " transform="matrix(0.998785, 0, 0, -0.998785, 483.450507, 543.448806)" />
<path fill="none" stroke-width="0.5" stroke-linecap="butt" stroke-linejoin="miter" stroke="rgb(100%, 100%, 100%)" stroke-opacity="1" stroke-miterlimit="10" d="M 0.000639764 0.000219409 L 1.475087 218.722947 C 1.482909 219.790651 1.443799 220.854443 1.361668 221.914324 L 0.211834 236.342007 " transform="matrix(0.998785, 0, 0, -0.998785, 477.280611, 543.437719)" />
<path fill="none" stroke-width="0.5" stroke-linecap="butt" stroke-linejoin="miter" stroke="rgb(100%, 100%, 100%)" stroke-opacity="1" stroke-miterlimit="10" d="M -0.00138578 -0.000382573 L 1.911094 214.439799 C 1.942382 217.595977 1.535638 220.736511 0.706505 223.77927 L 0.366248 225.026879 " transform="matrix(0.998785, 0, 0, -0.998785, 475.03654, 543.366805)" />
<path fill="none" stroke-width="0.5" stroke-linecap="butt" stroke-linejoin="miter" stroke="rgb(100%, 100%, 100%)" stroke-opacity="1" stroke-miterlimit="10" d="M 0.0000526976 0.00134944 L 1.986841 205.598758 C 2.006396 207.550348 1.838223 209.494115 1.490144 211.414417 L 1.052112 213.804038 " transform="matrix(0.998785, 0, 0, -0.998785, 472.88276, 543.32166)" />
</svg>