<?xml version="1.0" standalone="no"?>
<!DOCTYPE svg PUBLIC "-//W3C//DTD SVG 20010904//EN"
 "http://www.w3.org/TR/2001/REC-SVG-20010904/DTD/svg10.dtd">
<svg version="1.0" xmlns="http://www.w3.org/2000/svg"
 width="1200.000000pt" height="1200.000000pt" viewBox="0 0 1200.000000 1200.000000"
 preserveAspectRatio="xMidYMid meet">

<g transform="translate(0.000000,1200.000000) scale(0.100000,-0.100000)"
fill="#000000" stroke="none">
<path d="M5180 8542 c0 -11 73 -35 143 -47 69 -13 38 10 -41 29 -42 10 -83 21
-89 23 -7 3 -13 0 -13 -5z"/>
<path d="M5640 8457 c-3 -2 -104 -7 -225 -11 -310 -8 -359 -14 -750 -80 -158
-28 -236 -44 -350 -76 -38 -10 -127 -35 -196 -54 -197 -54 -337 -109 -554
-217 -222 -110 -260 -132 -410 -236 -302 -211 -485 -485 -485 -727 0 -110 54
-259 134 -370 75 -105 239 -249 334 -293 20 -9 39 -20 42 -23 10 -13 288 -130
375 -158 249 -82 339 -101 700 -147 412 -52 964 -44 1375 20 254 40 444 76
555 103 137 35 428 131 520 172 11 5 74 34 141 63 396 175 689 383 844 600 66
92 131 239 143 323 18 120 -3 246 -55 347 -46 87 -101 163 -156 211 -19 17
-47 41 -61 54 -82 73 -341 220 -471 267 -363 130 -728 200 -1150 220 -63 3
-156 8 -205 11 -50 3 -92 3 -95 1z"/>
<path d="M9444 7921 c8 -13 -43 -32 -70 -25 -14 4 -24 2 -24 -5 0 -6 9 -11 20
-11 11 0 20 -3 20 -7 0 -15 -55 -33 -104 -34 l-51 -2 40 -7 c53 -9 95 -27 95
-39 0 -6 -8 -7 -17 -4 -16 6 -17 5 -3 -12 14 -17 13 -18 -5 -11 -11 4 -46 10
-78 13 -32 3 -55 9 -50 12 15 11 11 41 -6 41 -30 0 -95 -45 -124 -86 -16 -22
-31 -60 -34 -83 -5 -40 -7 -42 -33 -36 -16 4 -44 0 -65 -9 -20 -9 -47 -13 -59
-10 -25 6 -56 -20 -99 -84 -22 -31 -27 -53 -34 -144 -5 -60 -5 -108 -2 -108 4
0 37 26 73 57 59 51 66 61 66 94 0 34 4 39 43 58 46 22 102 27 127 11 18 -11
30 2 -130 -136 -63 -54 -117 -101 -120 -104 -3 -3 -21 -18 -40 -34 -19 -15
-55 -47 -80 -70 -93 -85 -121 -106 -145 -106 -31 0 -31 7 -2 38 12 13 18 22
12 21 -14 -5 -103 31 -147 58 -20 12 -53 38 -72 58 -19 19 -39 35 -43 35 -4 0
-1 -4 7 -10 8 -5 11 -12 7 -16 -4 -4 -16 1 -27 11 -24 22 -26 9 -4 -25 14 -23
13 -22 -10 3 -30 33 -36 34 -36 5 0 -34 56 -109 111 -148 50 -36 60 -50 34
-50 -21 0 -21 -85 -1 -93 22 -9 8 -42 -32 -73 -19 -16 -40 -34 -46 -39 -6 -6
-33 -28 -61 -50 -27 -22 -66 -53 -85 -70 -20 -16 -56 -46 -80 -65 -24 -19 -58
-47 -75 -61 -16 -14 -39 -33 -50 -42 -144 -115 -243 -195 -371 -302 -40 -33
-81 -67 -93 -75 -11 -9 -35 -29 -53 -46 -18 -16 -53 -45 -78 -64 -25 -19 -75
-59 -111 -90 -36 -30 -105 -86 -152 -125 -48 -38 -87 -75 -87 -82 0 -7 -10
-18 -22 -24 -35 -19 -48 -35 -54 -71 -3 -18 -11 -46 -17 -63 l-11 -29 -7 24
c-6 22 -7 20 -8 -11 -1 -37 -34 -88 -45 -70 -4 5 0 13 7 18 20 12 27 39 14 52
-19 19 -92 13 -112 -9 -15 -16 -15 -22 -5 -35 7 -8 20 -15 28 -15 12 0 13 -3
4 -12 -9 -9 -17 -7 -36 11 -19 18 -24 19 -29 7 -5 -12 -10 -13 -31 -3 -14 7
-26 14 -26 17 0 3 18 15 40 28 41 23 52 42 24 42 -8 0 -12 4 -9 10 3 5 0 8 -7
6 -7 -3 -26 -7 -41 -10 -22 -5 -27 -11 -22 -25 11 -35 -4 -51 -49 -51 -30 0
-44 5 -54 20 -7 11 -11 20 -10 20 10 0 143 52 193 75 l60 27 -22 -24 -23 -24
33 -12 c48 -17 116 -5 129 24 22 48 -20 69 -86 44 -51 -19 -25 0 68 50 113 61
116 63 382 282 116 95 294 241 394 323 178 146 182 150 149 153 -19 1 -53 5
-76 8 l-42 5 19 32 c10 18 24 55 31 82 6 28 13 52 15 53 1 2 23 -8 49 -23 25
-15 48 -26 50 -23 3 2 1 20 -4 39 -5 19 -12 57 -15 86 l-7 52 45 21 c86 39
172 52 301 48 106 -4 123 -3 148 14 15 11 27 23 27 27 0 27 -253 41 -366 20
-66 -12 -192 -67 -213 -92 -16 -20 -33 -22 -30 -4 3 27 -2 57 -10 57 -5 0 -36
-35 -69 -79 -157 -202 -451 -420 -762 -564 -408 -189 -945 -333 -1365 -367
-77 -6 -165 -15 -195 -20 -126 -22 -471 -32 -685 -20 -780 42 -1384 242 -1713
567 -46 46 -85 83 -87 83 -6 0 -25 -127 -26 -175 -4 -157 15 -345 43 -413 60
-149 161 -277 301 -381 31 -24 57 -45 57 -47 0 -4 -29 6 -45 15 -5 3 -30 13
-55 22 -46 17 -107 41 -265 102 -137 53 -1046 417 -1080 433 -16 7 -57 23 -90
34 -33 12 -84 33 -113 46 -29 13 -55 24 -58 24 -3 0 -112 43 -243 95 -132 52
-246 95 -256 95 -11 0 -15 -6 -12 -17 3 -10 17 -71 32 -135 14 -64 32 -121 38
-126 7 -5 167 -74 357 -152 190 -78 397 -163 460 -190 63 -27 223 -93 355
-148 132 -55 416 -173 630 -262 215 -89 453 -188 530 -220 77 -32 257 -106
400 -166 143 -59 289 -119 325 -134 400 -166 1127 -468 1170 -485 30 -12 231
-95 445 -184 215 -89 516 -214 670 -278 154 -63 309 -128 345 -143 227 -97
681 -280 693 -280 9 0 28 12 44 27 16 16 67 64 113 107 84 78 153 145 460 440
85 82 202 195 260 250 58 55 166 159 240 231 74 72 236 227 359 345 124 118
295 283 380 366 86 83 170 164 186 179 27 24 308 295 618 594 77 75 104 107
95 113 -10 7 -9 8 3 6 17 -3 164 130 155 140 -3 3 -14 -1 -23 -9 -16 -13 -17
-12 -4 4 8 10 19 16 26 14 6 -3 37 19 70 49 32 30 54 54 49 54 -6 0 -25 -14
-42 -31 -32 -31 -57 -34 -32 -4 11 13 10 14 -4 9 -9 -4 -16 -14 -15 -23 4 -39
0 -41 -81 -41 -47 0 -80 -4 -80 -10 0 -5 -9 -10 -20 -10 -11 0 -20 7 -20 15 0
9 6 12 18 9 14 -5 15 -4 2 5 -13 10 -13 12 0 21 8 5 11 10 5 10 -11 -1 -65
-46 -65 -55 0 -3 7 -5 16 -5 9 0 14 -6 12 -12 -3 -7 -11 -13 -19 -13 -8 0 -13
6 -11 13 4 21 -13 13 -48 -23 -19 -19 -39 -35 -44 -35 -6 0 3 12 19 27 17 14
80 74 140 132 61 59 173 165 249 236 76 72 153 144 171 160 69 66 279 261 296
276 26 22 24 38 -6 49 -14 5 -25 15 -25 23 0 20 -365 111 -411 102 -31 -6 -95
8 -241 51 -10 3 -18 11 -18 18 0 20 -343 109 -387 101 -20 -4 -56 0 -90 10
-30 9 -57 14 -60 12 -9 -10 137 -48 158 -42 14 5 19 3 15 -3 -3 -6 -1 -12 6
-15 7 -2 4 -3 -7 -1 -11 1 -38 5 -60 8 -22 4 -32 3 -23 -1 10 -5 -20 -8 -67
-8 -47 0 -85 3 -85 7 0 3 11 20 25 36 l25 30 -23 6 c-40 11 -65 7 -69 -11 -2
-11 -6 -14 -10 -7 -4 6 19 38 52 73 33 34 60 71 60 82 0 13 -4 18 -12 13 -7
-4 -4 3 7 15 28 32 26 138 -4 202 -30 66 -103 143 -163 173 -51 25 -94 34 -84
17z m215 -301 c0 -13 -1 -13 -8 0 -5 8 -12 26 -15 40 l-7 25 15 -25 c9 -14 15
-32 15 -40z m-393 10 c8 0 14 -5 14 -10 0 -7 -13 -8 -34 -5 -41 8 -76 -8 -76
-35 0 -20 -15 -27 -24 -11 -14 21 62 75 92 65 8 -2 20 -4 28 -4z m-196 -54
c19 -19 56 -46 82 -59 44 -23 46 -26 29 -41 -23 -21 -42 -21 -34 1 5 12 2 15
-10 10 -11 -4 -22 2 -33 18 -10 16 -26 25 -41 25 -14 0 -36 9 -50 20 -28 22
-58 26 -68 10 -3 -5 -11 -10 -18 -10 -16 0 11 25 48 44 43 23 55 20 95 -18z
m326 -20 c3 -8 2 -34 -3 -58 l-9 -43 -16 46 c-12 34 -13 50 -5 58 15 15 27 14
33 -3z m-192 -102 c9 -3 13 -11 9 -17 -4 -7 2 -8 18 -3 13 3 53 9 89 12 60 6
64 5 45 -10 -11 -8 -15 -16 -8 -16 6 0 18 7 27 15 17 17 42 20 51 5 3 -5 -1
-10 -10 -10 -9 0 -30 -7 -46 -16 -29 -15 -31 -14 -36 5 -5 21 -23 29 -23 11 0
-5 -6 -10 -14 -10 -8 0 -35 -20 -59 -45 -25 -25 -48 -45 -51 -45 -3 0 -10 9
-16 20 -9 16 -7 26 10 49 18 27 19 31 4 45 -17 17 -15 19 10 10z m318 -74 c35
-27 58 -80 53 -120 -5 -44 -9 -45 -30 -13 -16 24 -16 26 -2 14 15 -12 17 -10
14 15 -2 16 -7 37 -11 46 -18 39 -132 31 -171 -12 -10 -11 -23 -20 -28 -20
-18 0 34 48 70 66 25 11 48 14 77 10 29 -4 37 -3 26 4 -8 5 -31 10 -51 10 -48
0 -126 -57 -163 -119 -16 -27 -24 -36 -20 -21 15 56 84 134 134 153 32 12 78
6 102 -13z m128 -28 c0 -5 -9 -17 -19 -26 -16 -15 -18 -27 -14 -72 4 -35 2
-54 -5 -54 -6 0 -12 -15 -14 -32 -2 -18 -3 10 -2 62 2 52 6 103 9 113 7 17 45
25 45 9z m-135 -42 c10 -11 15 -23 12 -27 -4 -3 -7 -2 -7 4 0 5 -11 15 -25 21
-32 15 -38 15 -29 0 5 -8 0 -9 -15 -5 -16 4 -32 -4 -58 -26 -31 -27 -34 -28
-24 -9 16 30 69 62 102 62 14 0 34 -9 44 -20z m-1 -71 c31 -15 38 -32 26 -64
-28 -74 -89 -84 -116 -20 -18 44 -18 59 1 51 8 -3 14 -2 12 2 -3 11 26 41 40
42 7 0 23 -5 37 -11z m-230 -74 c-4 -8 -8 -15 -10 -15 -2 0 -4 7 -4 15 0 8 4
15 10 15 5 0 7 -7 4 -15z m311 -53 c-3 -3 -11 0 -18 7 -9 10 -8 11 6 5 10 -3
15 -9 12 -12z m-205 -39 c0 -2 -11 4 -25 13 -14 9 -25 20 -25 25 0 5 11 -1 25
-13 14 -12 25 -23 25 -25z m134 22 c3 -10 -5 -20 -24 -30 -34 -17 -50 -19 -50
-5 0 6 6 10 13 10 8 0 22 9 33 19 10 11 20 20 20 20 1 1 4 -6 8 -14z m-69 -4
c-16 -14 -55 -23 -55 -12 0 8 16 14 55 20 6 0 6 -2 0 -8z m140 -2 c11 -16 1
-19 -13 -3 -7 8 -8 14 -3 14 5 0 13 -5 16 -11z m-28 -35 c-3 -3 -12 -4 -19 -1
-8 3 -5 6 6 6 11 1 17 -2 13 -5z m-182 -14 c18 -7 16 -10 -17 -24 -44 -19 -48
-19 -48 -6 0 6 8 10 18 11 10 0 12 3 5 6 -7 2 -13 9 -13 14 0 11 28 11 55 -1z
m102 -24 c-10 -21 -13 -22 -23 -7 -10 13 -9 17 4 23 28 11 31 9 19 -16z m95
-11 c-4 -38 -15 -49 -41 -40 -16 5 -21 13 -19 33 4 32 16 43 43 40 16 -2 19
-9 17 -33z m-165 0 c-15 -14 -38 -25 -50 -25 -16 1 -10 7 23 24 58 30 60 30
27 1z m-594 -68 c-69 -59 -71 -60 -66 -33 6 32 43 57 96 65 4 0 -10 -14 -30
-32z m556 24 c17 -11 7 -59 -14 -68 -23 -8 -44 14 -37 40 8 33 26 43 51 28z
m158 -17 c-3 -3 -12 -4 -19 -1 -8 3 -5 6 6 6 11 1 17 -2 13 -5z m-47 -18 c0
-2 -11 -6 -25 -8 -14 -3 -25 -1 -25 3 0 5 11 9 25 9 14 0 25 -2 25 -4z m67
-12 c-3 -3 -12 -4 -19 -1 -8 3 -5 6 6 6 11 1 17 -2 13 -5z m-101 -31 c-7 -23
43 -50 56 -30 7 9 8 8 6 -3 -1 -8 16 -35 39 -59 57 -59 67 -114 29 -171 -37
-56 -187 -151 -236 -149 -8 0 9 11 38 24 l54 25 -6 52 c-14 129 -18 298 -7
298 6 0 11 7 11 15 0 8 5 15 11 15 6 0 8 -8 5 -17z m-686 -20 c-1 -15 -30 -46
-37 -40 -3 4 2 16 12 27 19 21 25 24 25 13z m60 -83 c0 -5 -6 -10 -14 -10 -8
0 -21 -8 -28 -17 -32 -43 -118 -70 -118 -37 0 13 7 15 35 10 19 -4 35 -3 35 2
0 9 70 62 82 62 5 0 8 -4 8 -10z m-338 -110 c-12 -11 -25 -20 -29 -20 -9 1 36
40 45 40 3 0 -4 -9 -16 -20z m858 6 c0 -11 -19 -15 -25 -6 -3 5 1 10 9 10 9 0
16 -2 16 -4z m70 -56 c0 -5 -10 -10 -22 -10 -19 0 -20 2 -8 10 19 13 30 13 30
0z m-1048 -41 c2 -17 14 -25 48 -34 49 -12 113 -44 91 -45 -7 0 -11 -6 -8 -14
3 -8 -1 -17 -10 -20 -21 -9 -284 5 -281 14 4 10 141 119 150 120 4 0 8 -10 10
-21z m496 -18 c68 -24 82 -26 87 -14 4 12 8 13 20 3 19 -16 19 -34 0 -26 -21
7 -19 4 15 -51 16 -26 37 -48 46 -49 9 -1 17 -4 17 -6 19 -38 39 -63 51 -63
43 0 55 -57 15 -70 -22 -7 -59 10 -59 28 0 7 -12 23 -25 36 -14 13 -25 34 -25
50 0 35 -63 114 -95 117 -13 1 -56 13 -94 25 -56 18 -68 25 -59 36 14 17 14
17 106 -16z m-67 -40 c3 -3 10 -18 17 -33 12 -28 11 -28 -28 -28 -37 0 -40 2
-40 28 0 15 -6 34 -12 41 -11 11 -7 12 22 6 19 -4 38 -10 41 -14z m624 -51
c-22 -10 -53 -21 -70 -24 -16 -4 -3 5 30 18 70 29 99 33 40 6z m-327 -80 c7
-11 11 -20 9 -20 -2 0 -12 9 -22 20 -10 11 -14 20 -9 20 5 0 15 -9 22 -20z
m-795 0 c110 0 117 -1 117 -20 0 -11 -4 -20 -10 -20 -5 0 -7 7 -4 15 5 12 -3
15 -40 15 -25 0 -46 -4 -46 -10 0 -5 -15 -10 -32 -9 -28 0 -30 2 -13 9 18 8
17 9 -7 9 -19 1 -28 -4 -28 -14 0 -11 -12 -15 -44 -15 -25 0 -47 -3 -49 -7 -3
-5 38 -6 91 -5 54 2 94 1 91 -2 -4 -4 -43 -7 -88 -7 l-81 0 0 -55 0 -54 -40 0
c-29 0 -40 -4 -40 -15 0 -12 -15 -15 -79 -15 -44 0 -81 4 -83 8 -1 5 -18 -2
-37 -15 -19 -13 -27 -23 -19 -23 9 0 21 7 28 15 7 8 16 15 20 15 4 0 8 -47 9
-105 l2 -105 -41 0 c-22 0 -40 5 -40 10 0 6 -18 10 -40 10 l-40 0 0 -40 0 -40
-40 0 c-25 0 -40 5 -40 13 0 9 -2 9 -9 -1 -4 -8 -14 -13 -22 -12 -27 4 -49 0
-49 -9 0 -5 -20 -29 -45 -54 -40 -41 -44 -49 -35 -71 5 -15 7 -26 4 -26 -2 0
-8 9 -12 20 -5 14 -11 17 -22 10 -13 -9 -13 -11 0 -21 13 -9 12 -10 -3 -5 -10
3 -27 1 -38 -4 -13 -7 -19 -7 -19 0 0 5 4 10 9 10 10 0 163 150 208 204 18 21
33 30 49 28 16 -2 24 2 24 12 0 19 -16 21 -23 4 -2 -7 -8 -10 -12 -6 -12 11
16 40 32 34 10 -4 13 -1 8 13 -4 14 0 23 15 31 13 7 20 7 20 0 0 -5 18 -10 40
-10 22 0 40 4 40 8 0 5 -13 7 -29 4 -16 -2 -32 1 -36 8 -10 16 26 40 50 33 17
-5 18 -4 7 10 -11 13 -8 19 20 38 18 13 35 26 38 29 3 3 29 24 58 48 37 31 58
42 72 37 13 -4 32 3 57 21 21 16 40 29 42 31 2 2 1 6 -3 10 -4 5 -13 1 -19 -7
-18 -23 -68 -53 -75 -45 -4 4 9 19 28 34 19 14 41 34 50 43 11 13 25 16 50 13
19 -3 88 -5 153 -5z m147 -34 c0 -14 -5 -28 -11 -31 -6 -4 -8 -21 -5 -38 6
-29 5 -30 -4 -8 -8 18 -8 33 1 52 6 15 8 33 4 38 -3 6 -1 11 4 11 6 0 11 -11
11 -24z m317 -8 c-3 -8 -6 -5 -6 6 -1 11 2 17 5 13 3 -3 4 -12 1 -19z m-429
-73 c-2 -25 1 -47 7 -49 5 -3 2 -5 -7 -5 -15 -1 -18 8 -18 49 0 30 4 50 11 50
7 0 10 -17 7 -45z m65 -36 c-5 -5 -7 7 -4 29 5 34 6 35 9 8 2 -16 0 -32 -5
-37z m413 10 c36 -11 64 -22 62 -24 -7 -7 -168 48 -168 57 0 5 9 4 20 -2 11
-6 50 -20 86 -31z m-374 -61 c2 -21 0 -38 -4 -38 -4 0 -8 21 -7 48 1 52 6 48
11 -10z m-152 32 c0 -5 -12 -10 -27 -9 -25 0 -26 1 -8 9 27 12 35 12 35 0z
m105 -11 c11 -16 1 -19 -13 -3 -7 8 -8 14 -3 14 5 0 13 -5 16 -11z m1758 -31
c3 -8 -5 -14 -19 -14 -18 -2 -20 1 -11 12 15 17 24 17 30 2z m-1753 -16 c0 9
50 -37 50 -46 0 -4 -16 5 -35 20 -19 14 -35 31 -35 38 0 6 5 4 10 -4 5 -8 10
-12 10 -8z m1644 -44 c-25 -30 -47 -47 -58 -48 -6 0 5 16 24 35 37 38 65 49
34 13z m-1764 -23 c15 -18 0 -20 -19 -2 -12 10 -13 8 -7 -8 6 -15 4 -17 -5 -8
-11 11 -5 33 10 33 5 0 14 -7 21 -15z m24 -40 c3 -8 1 -15 -4 -15 -6 0 -10 7
-10 15 0 8 2 15 4 15 2 0 6 -7 10 -15z m1656 -20 c-7 -8 -17 -15 -23 -15 -5 0
-2 9 8 20 21 23 35 19 15 -5z m-1584 -43 c-4 -3 -14 2 -24 12 -16 18 -16 18 6
6 13 -6 21 -14 18 -18z m44 -22 c18 -12 2 -12 -25 0 -13 6 -15 9 -5 9 8 0 22
-4 30 -9z m35 -20 c3 -5 1 -10 -4 -10 -6 0 -11 5 -11 10 0 6 2 10 4 10 3 0 8
-4 11 -10z m35 -14 c0 -3 -4 -8 -10 -11 -5 -3 -10 -1 -10 4 0 6 5 11 10 11 6
0 10 -2 10 -4z m1270 -81 c-7 -8 -16 -15 -21 -15 -5 0 -1 8 9 18 20 22 31 19
12 -3z m-2172 -14 c-8 -12 -18 -18 -21 -14 -4 3 0 15 10 25 21 24 29 15 11
-11z m92 -11 c0 -5 -18 -10 -40 -10 -22 0 -40 5 -40 10 0 6 18 10 40 10 22 0
40 -4 40 -10z m-128 -42 c-9 -9 -12 -7 -12 12 0 19 3 21 12 12 9 -9 9 -15 0
-24z m-5157 -8 c3 -6 -1 -7 -9 -4 -18 7 -21 14 -7 14 6 0 13 -4 16 -10z m4835
-10 c0 -5 -4 -10 -10 -10 -5 0 -10 5 -10 10 0 6 5 10 10 10 6 0 10 -4 10 -10z
m350 0 c0 -5 -5 -10 -11 -10 -5 0 -7 5 -4 10 3 6 8 10 11 10 2 0 4 -4 4 -10z
m-5130 -10 c8 -5 11 -10 5 -10 -5 0 -17 5 -25 10 -8 5 -10 10 -5 10 6 0 17 -5
25 -10z m6680 0 c0 -5 -4 -10 -10 -10 -5 0 -10 5 -10 10 0 6 5 10 10 10 6 0
10 -4 10 -10z m319 -22 c-8 -14 -14 -17 -22 -9 -7 7 -6 15 3 25 17 22 32 9 19
-16z m-2249 10 c-1 -17 -49 -52 -58 -43 -4 4 7 18 23 31 35 28 35 28 35 12z
m-4700 -8 c8 -5 11 -10 5 -10 -5 0 -17 5 -25 10 -8 5 -10 10 -5 10 6 0 17 -5
25 -10z m50 -20 c8 -5 11 -10 5 -10 -5 0 -17 5 -25 10 -8 5 -10 10 -5 10 6 0
17 -5 25 -10z m4803 -40 c-15 -16 -35 -30 -43 -30 -9 0 -1 12 20 30 46 38 60
38 23 0z m-4595 -42 c73 -29 130 -54 125 -55 -4 -2 -69 22 -143 52 -74 30
-130 55 -125 55 6 0 70 -23 143 -52z m4675 45 c-7 -2 -19 -2 -25 0 -7 3 -2 5
12 5 14 0 19 -2 13 -5z m-306 -9 c-3 -3 -12 -4 -19 -1 -8 3 -5 6 6 6 11 1 17
-2 13 -5z m40 -20 c-3 -3 -12 -4 -19 -1 -8 3 -5 6 6 6 11 1 17 -2 13 -5z m43
-20 c0 -2 -7 -4 -15 -4 -8 0 -15 4 -15 10 0 5 7 7 15 4 8 -4 15 -8 15 -10z
m-54 -10 c18 -9 33 -19 32 -22 0 -4 0 -16 1 -26 1 -18 2 -18 20 -2 11 10 17
24 14 32 -3 8 0 14 6 14 6 0 11 -8 11 -18 0 -10 5 -23 12 -30 9 -9 7 -17 -10
-35 -14 -15 -22 -37 -23 -63 -1 -33 -2 -35 -8 -12 l-6 27 -43 -40 c-24 -21
-46 -39 -48 -39 -3 0 -2 16 2 36 6 34 6 36 -14 25 -24 -13 -38 -31 -23 -31 6
0 17 -13 26 -30 20 -38 5 -39 -32 -2 -31 31 -88 52 -81 30 3 -7 11 -13 19 -14
35 -2 40 -5 34 -14 -9 -14 -158 -5 -163 9 -2 6 -11 11 -19 11 -14 0 -14 3 2
20 16 18 19 18 30 4 10 -15 14 -13 33 11 20 25 25 27 47 17 19 -9 32 -8 59 3
20 8 42 15 51 15 29 0 80 44 83 71 2 21 -4 29 -27 39 -25 10 -39 9 -81 -5 -65
-21 -76 -13 -18 14 53 25 70 26 114 5z m120 -29 c4 -25 3 -27 -11 -15 -13 11
-13 15 -3 21 11 7 11 9 0 9 -7 0 -10 5 -7 11 9 14 15 7 21 -26z m64 26 c0 -5
-7 -12 -16 -15 -24 -9 -28 -7 -14 9 14 17 30 20 30 6z m1037 -23 c-3 -8 -6 -5
-6 6 -1 11 2 17 5 13 3 -3 4 -12 1 -19z m-5354 -67 c59 -24 106 -45 104 -47
-5 -5 -210 76 -222 89 -12 12 -17 13 118 -42z m3420 -30 c-4 -15 0 -18 19 -16
13 2 34 7 48 13 36 14 72 -2 68 -30 -2 -18 -9 -22 -27 -20 -13 1 -30 -3 -38
-10 -12 -10 -18 -7 -34 12 -13 18 -19 20 -19 10 0 -9 5 -21 12 -28 16 -16 7
-23 -20 -15 -17 4 -21 11 -17 32 5 25 5 25 -6 4 -12 -23 -29 -31 -29 -13 0 15
33 80 41 80 4 0 5 -8 2 -19z m561 4 c-7 -17 -20 -20 -28 -6 -4 5 0 12 6 14 23
9 28 7 22 -8z m246 -5 c0 -11 -4 -20 -10 -20 -5 0 -10 9 -10 20 0 11 5 20 10
20 6 0 10 -9 10 -20z m-484 -25 c55 -23 39 -65 -26 -65 -24 0 -39 6 -48 20
-15 24 -28 25 -66 5 -35 -18 -36 -18 -36 0 0 8 6 12 14 9 8 -3 17 -1 21 5 3 6
17 11 31 11 35 0 64 17 65 38 0 11 2 12 6 4 3 -7 20 -19 39 -27z m61 29 c-3
-3 -12 -4 -19 -1 -8 3 -5 6 6 6 11 1 17 -2 13 -5z m440 -26 c-3 -7 -5 -2 -5
12 0 14 2 19 5 13 2 -7 2 -19 0 -25z m-4039 -30 c29 -11 51 -22 49 -24 -5 -6
-137 46 -137 53 0 3 8 2 18 -2 9 -4 41 -16 70 -27z m3882 2 c0 -5 -5 -10 -11
-10 -5 0 -7 5 -4 10 3 6 8 10 11 10 2 0 4 -4 4 -10z m75 -20 c3 -5 1 -10 -4
-10 -6 0 -11 5 -11 10 0 6 2 10 4 10 3 0 8 -4 11 -10z m-3865 -20 c8 -5 11
-10 5 -10 -5 0 -17 5 -25 10 -8 5 -10 10 -5 10 6 0 17 -5 25 -10z m81 -35 c30
-14 43 -22 29 -19 -26 7 -100 43 -89 44 4 0 31 -11 60 -25z m3484 -25 c3 -5 2
-10 -2 -10 -5 0 -19 -20 -31 -45 -12 -25 -28 -45 -36 -45 -8 0 -16 -4 -18 -10
-4 -12 -98 -21 -98 -9 0 5 -4 9 -9 9 -5 0 -8 -8 -7 -17 0 -10 -6 -18 -14 -18
-10 0 -15 -10 -15 -30 -1 -29 -4 -31 -70 -46 -66 -16 -72 -16 -100 2 -16 10
-33 31 -38 46 -8 30 -15 163 -8 163 3 0 12 -6 20 -14 9 -8 55 -19 104 -25 77
-9 92 -8 130 8 23 10 57 22 75 26 17 3 34 11 37 16 8 12 72 12 80 -1z m-3395
-10 c8 -5 11 -10 5 -10 -5 0 -17 5 -25 10 -8 5 -10 10 -5 10 6 0 17 -5 25 -10z
m3535 0 c3 -5 1 -10 -4 -10 -6 0 -11 5 -11 10 0 6 2 10 4 10 3 0 8 -4 11 -10z
m-3485 -20 c8 -5 11 -10 5 -10 -5 0 -17 5 -25 10 -8 5 -10 10 -5 10 6 0 17 -5
25 -10z m3480 -14 c0 -3 -4 -8 -10 -11 -5 -3 -10 -1 -10 4 0 6 5 11 10 11 6 0
10 -2 10 -4z m-3405 -24 c-3 -3 -11 0 -18 7 -9 10 -8 11 6 5 10 -3 15 -9 12
-12z m3450 -3 c11 -16 1 -19 -13 -3 -7 8 -8 14 -3 14 5 0 13 -5 16 -11z
m-3364 -24 c30 -14 43 -22 30 -19 -33 9 -109 44 -95 44 6 0 36 -11 65 -25z
m3234 6 c-3 -6 -15 -11 -26 -11 -11 0 -30 -5 -42 -11 -21 -10 -21 -10 -3 5 11
9 28 16 37 16 10 0 21 5 24 11 4 6 9 8 12 5 3 -2 2 -9 -2 -15z m203 -46 c0
-16 -2 -15 -8 5 -4 14 -8 34 -8 45 0 16 2 15 8 -5 4 -14 8 -34 8 -45z m-718
25 c0 -5 -12 -10 -27 -10 -16 0 -35 -5 -43 -11 -11 -8 -6 -9 21 -5 42 7 55 -4
61 -49 2 -23 -1 -30 -17 -33 -17 -4 -18 -2 -5 13 12 14 12 18 -1 26 -11 7 -12
11 -1 18 11 7 11 9 0 13 -28 8 -159 1 -170 -10 -7 -7 -28 -12 -47 -11 l-36 1
30 8 c88 22 190 52 194 56 9 8 41 4 41 -6z m-2575 -41 c31 -12 55 -23 53 -25
-4 -3 -109 34 -117 42 -9 8 10 3 64 -17z m2975 17 c0 -2 -7 -7 -16 -10 -8 -3
-12 -2 -9 4 6 10 25 14 25 6z m270 -26 c0 -5 -2 -10 -4 -10 -3 0 -8 5 -11 10
-3 6 -1 10 4 10 6 0 11 -4 11 -10z m-3086 -56 c28 -13 44 -24 36 -23 -8 0 -42
14 -75 30 -33 16 -49 26 -36 23 13 -4 47 -17 75 -30z m2236 24 c0 -5 -24 -9
-52 -10 -93 -3 -112 -4 -163 -12 -83 -12 -85 -13 -85 -56 0 -34 -3 -39 -22
-38 -63 4 -78 -1 -78 -27 0 -22 -4 -25 -40 -25 -29 0 -40 -4 -40 -15 0 -12
-20 -15 -120 -15 l-120 0 0 -40 0 -40 -120 0 -120 0 0 -40 0 -40 40 0 c22 0
40 -4 40 -10 0 -5 -18 -10 -40 -10 -22 0 -40 5 -40 10 0 6 -33 10 -80 10 -64
0 -80 3 -80 15 0 12 -16 15 -80 15 -64 0 -80 -3 -80 -15 0 -15 24 -20 85 -17
30 1 30 1 5 -9 -14 -6 -41 -8 -60 -5 -19 4 -50 8 -69 11 -19 2 -37 8 -40 13
-3 5 -20 13 -38 16 -17 4 -37 14 -44 22 -6 8 -29 17 -50 20 -21 4 -36 10 -33
15 3 5 -3 9 -14 9 -33 0 -82 21 -75 33 4 7 0 8 -11 4 -29 -12 -41 5 -15 20 14
9 17 12 6 9 -30 -9 -73 -17 -59 -10 6 3 12 10 12 15 0 6 -7 6 -18 0 -13 -7
-27 -6 -45 4 -15 8 -27 12 -27 9 0 -3 -5 -2 -11 2 -8 4 -7 9 2 16 10 7 8 8 -7
3 -12 -3 -44 3 -70 14 -195 77 -276 111 -254 106 78 -18 264 -46 390 -60 164
-17 628 -24 788 -11 l102 8 0 -46 c0 -35 4 -46 16 -46 12 0 15 10 13 45 -2 24
-1 46 2 48 2 2 44 7 93 11 76 5 87 4 82 -9 -6 -17 19 -21 29 -5 3 6 13 10 21
10 8 0 13 -3 11 -7 -3 -5 34 -8 81 -9 l87 -1 -77 10 c-43 5 -78 13 -78 16 0 4
-15 5 -32 3 -18 -3 -31 -2 -28 1 3 3 52 12 110 21 58 9 116 19 130 23 22 6 24
5 11 -10 -7 -9 -28 -18 -45 -18 -28 -1 -28 -2 9 -9 22 -4 48 -10 58 -15 19 -8
24 10 5 19 -10 5 -10 7 0 12 6 3 10 9 7 14 -7 11 43 27 124 39 35 6 65 12 67
13 6 7 134 2 134 -4z m-31 -22 c-2 -2 -22 -6 -44 -10 -29 -5 -36 -4 -25 3 13
10 79 16 69 7z m-146 -13 c-7 -2 -19 -2 -25 0 -7 3 -2 5 12 5 14 0 19 -2 13
-5z m177 -8 c0 -11 -11 -15 -40 -15 -48 0 -54 17 -7 23 17 2 35 5 40 5 4 1 7
-5 7 -13z m240 -5 c0 -5 -18 -10 -40 -10 -22 0 -40 5 -40 10 0 6 18 10 40 10
22 0 40 -4 40 -10z m-2352 -25 c24 -10 41 -19 39 -22 -3 -2 -29 8 -58 22 -59
27 -50 28 19 0z m102 -41 c23 -9 39 -18 37 -20 -2 -3 -24 4 -48 15 -54 24 -45
27 11 5z m117 -48 c57 -22 104 -45 93 -46 -7 0 -153 60 -159 65 -8 9 5 5 66
-19z m137 -55 c4 -5 -3 -7 -14 -4 -23 6 -26 13 -6 13 8 0 17 -4 20 -9z m46
-21 c8 -5 11 -10 5 -10 -5 0 -17 5 -25 10 -8 5 -10 10 -5 10 6 0 17 -5 25 -10z
m70 -30 c8 -5 11 -10 5 -10 -5 0 -17 5 -25 10 -8 5 -10 10 -5 10 6 0 17 -5 25
-10z m80 -30 c8 -5 11 -10 5 -10 -5 0 -17 5 -25 10 -8 5 -10 10 -5 10 6 0 17
-5 25 -10z m50 -20 c8 -5 11 -10 5 -10 -5 0 -17 5 -25 10 -8 5 -10 10 -5 10 6
0 17 -5 25 -10z m70 -30 c8 -5 11 -10 5 -10 -5 0 -17 5 -25 10 -8 5 -10 10 -5
10 6 0 17 -5 25 -10z m50 -20 c8 -5 11 -10 5 -10 -5 0 -17 5 -25 10 -8 5 -10
10 -5 10 6 0 17 -5 25 -10z m191 -35 c19 -8 29 -14 23 -15 -7 0 -27 7 -45 15
-19 8 -29 14 -23 15 7 0 27 -7 45 -15z m-66 -23 c-3 -3 -11 0 -18 7 -9 10 -8
11 6 5 10 -3 15 -9 12 -12z m75 -22 c8 -5 11 -10 5 -10 -5 0 -17 5 -25 10 -8
5 -10 10 -5 10 6 0 17 -5 25 -10z m137 -6 c-3 -3 -12 -4 -19 -1 -8 3 -5 6 6 6
11 1 17 -2 13 -5z m88 -84 c3 -6 -1 -7 -9 -4 -18 7 -21 14 -7 14 6 0 13 -4 16
-10z m92 4 c-3 -3 -12 -4 -19 -1 -8 3 -5 6 6 6 11 1 17 -2 13 -5z m60 0 c-3
-3 -12 -4 -19 -1 -8 3 -5 6 6 6 11 1 17 -2 13 -5z m-102 -24 c13 -6 15 -9 5
-9 -8 0 -22 4 -30 9 -18 12 -2 12 25 0z m119 -9 c4 -5 -3 -7 -14 -4 -23 6 -26
13 -6 13 8 0 17 -4 20 -9z m27 -47 c35 -15 75 -30 88 -35 13 -5 22 -12 19 -14
-3 -3 -47 13 -99 35 -52 22 -89 40 -83 40 6 0 39 -12 75 -26z m179 -74 c8 -5
11 -10 5 -10 -5 0 -17 5 -25 10 -8 5 -10 10 -5 10 6 0 17 -5 25 -10z m114 -46
c28 -13 44 -24 36 -23 -8 0 -42 14 -75 30 -33 16 -49 26 -36 23 13 -4 47 -17
75 -30z m1629 -21 c34 -12 49 -24 53 -40 6 -20 11 -23 39 -17 63 11 145 -29
145 -71 0 -32 -21 -54 -65 -69 -34 -12 -40 -19 -43 -45 -5 -45 -51 -74 -127
-79 -47 -2 -67 1 -92 17 -49 31 -59 101 -14 101 15 0 19 -7 17 -32 -1 -25 5
-35 24 -45 32 -18 105 -11 130 12 25 23 25 30 0 55 -29 29 -17 40 44 40 57 0
80 15 74 47 -6 31 -50 45 -102 32 -25 -6 -54 -8 -63 -4 -16 6 -15 8 7 20 24
13 24 14 4 15 -13 0 -24 8 -27 20 -10 39 -98 52 -162 25 -39 -16 -50 -34 -41
-69 11 -45 61 -53 189 -30 42 7 50 -7 13 -24 -70 -32 -177 -20 -218 24 -13 13
-27 24 -31 24 -5 0 -34 -22 -65 -50 -58 -51 -73 -59 -71 -37 1 19 175 171 211
184 48 17 116 16 171 -4z m-1548 -13 c3 -6 -1 -7 -9 -4 -18 7 -21 14 -7 14 6
0 13 -4 16 -10z m93 -35 c24 -10 41 -19 39 -21 -5 -5 -94 30 -104 40 -9 10 -1
8 65 -19z m270 -109 c173 -68 347 -138 455 -183 20 -9 36 -18 34 -20 -5 -4
-697 273 -705 283 -8 9 -24 14 216 -80z m1137 -196 c8 0 15 -4 15 -10 0 -13
-23 -13 -57 2 -37 16 -36 15 -28 28 5 8 14 7 31 -4 13 -9 30 -16 39 -16z"/>
<path d="M9550 6994 c0 -8 5 -12 10 -9 6 4 8 11 5 16 -9 14 -15 11 -15 -7z"/>
<path d="M9356 6925 c-3 -8 -1 -15 4 -15 6 0 10 7 10 15 0 8 -2 15 -4 15 -2 0
-6 -7 -10 -15z"/>
<path d="M8160 6370 c0 -5 12 -10 28 -9 24 0 25 1 7 9 -27 12 -35 12 -35 0z"/>
<path d="M8050 6270 c-14 -11 -19 -20 -12 -20 14 0 47 28 41 35 -3 2 -15 -5
-29 -15z"/>
<path d="M7985 6270 c-11 -17 5 -32 21 -19 8 6 14 15 14 20 0 12 -27 11 -35
-1z"/>
<path d="M7790 6110 c0 -5 4 -10 9 -10 6 0 13 5 16 10 3 6 -1 10 -9 10 -9 0
-16 -4 -16 -10z"/>
<path d="M7736 6015 c-3 -8 -1 -15 4 -15 6 0 10 7 10 15 0 8 -2 15 -4 15 -2 0
-6 -7 -10 -15z"/>
<path d="M7655 5960 c-10 -11 -15 -23 -12 -27 7 -6 36 25 37 40 0 11 -6 8 -25
-13z"/>
<path d="M7184 5526 c-12 -11 -30 -26 -40 -32 -11 -7 -15 -15 -11 -20 4 -4 24
9 44 29 21 20 35 38 33 40 -3 3 -15 -5 -26 -17z"/>
<path d="M6520 5480 c0 -5 5 -10 10 -10 6 0 10 5 10 10 0 6 -4 10 -10 10 -5 0
-10 -4 -10 -10z"/>
<path d="M5745 5072 c29 -13 134 -24 114 -12 -9 5 -43 12 -75 15 -38 4 -52 2
-39 -3z"/>
<path d="M4338 5053 c12 -2 32 -2 45 0 12 2 2 4 -23 4 -25 0 -35 -2 -22 -4z"/>
<path d="M5555 5050 c-13 -5 -14 -9 -5 -9 8 0 24 4 35 9 13 5 14 9 5 9 -8 0
-24 -4 -35 -9z"/>
<path d="M4428 5043 c7 -3 16 -2 19 1 4 3 -2 6 -13 5 -11 0 -14 -3 -6 -6z"/>
<path d="M5458 5043 c12 -2 32 -2 45 0 12 2 2 4 -23 4 -25 0 -35 -2 -22 -4z"/>
<path d="M4358 5033 c7 -3 16 -2 19 1 4 3 -2 6 -13 5 -11 0 -14 -3 -6 -6z"/>
<path d="M5336 5025 c4 -8 10 -15 15 -15 5 0 9 7 9 15 0 8 -7 15 -15 15 -9 0
-12 -6 -9 -15z"/>
<path d="M5040 5010 c0 -5 18 -10 40 -10 23 0 40 -5 40 -11 0 -8 -18 -10 -60
-6 -68 8 -180 -2 -180 -14 0 -5 18 -9 40 -9 22 0 40 4 40 8 0 5 52 9 116 9 75
-1 118 3 122 10 4 6 23 13 42 16 19 2 0 2 -42 0 -53 -4 -78 -2 -78 6 0 6 -17
11 -40 11 -22 0 -40 -4 -40 -10z"/>
<path d="M5218 4963 c12 -2 32 -2 45 0 12 2 2 4 -23 4 -25 0 -35 -2 -22 -4z"/>
<path d="M4678 4923 c7 -3 16 -2 19 1 4 3 -2 6 -13 5 -11 0 -14 -3 -6 -6z"/>
<path d="M4783 4873 c9 -3 17 -9 17 -15 0 -6 15 -8 34 -6 24 3 32 0 29 -9 -3
-7 0 -13 6 -13 15 0 14 40 -1 41 -58 4 -100 5 -85 2z"/>
<path d="M9680 7313 c0 -5 24 -8 53 -9 37 -1 45 1 27 6 -34 11 -80 12 -80 3z"/>
<path d="M7801 7174 c0 -11 3 -14 6 -6 3 7 2 16 -1 19 -3 4 -6 -2 -5 -13z"/>
<path d="M8120 6739 c0 -5 5 -7 10 -4 6 3 10 8 10 11 0 2 -4 4 -10 4 -5 0 -10
-5 -10 -11z"/>
<path d="M8029 6663 c-13 -15 -12 -15 9 -4 23 12 28 21 13 21 -5 0 -15 -7 -22
-17z"/>
<path d="M7918 6603 c7 -3 16 -2 19 1 4 3 -2 6 -13 5 -11 0 -14 -3 -6 -6z"/>
<path d="M10510 6355 c-7 -8 -8 -15 -2 -15 5 0 15 7 22 15 7 8 8 15 2 15 -5 0
-15 -7 -22 -15z"/>
<path d="M10290 6345 c-7 -9 -8 -15 -2 -15 5 0 12 7 16 15 3 8 4 15 2 15 -2 0
-9 -7 -16 -15z"/>
<path d="M5421 5971 c-10 -6 -9 -10 3 -14 8 -3 18 -2 21 3 8 13 -9 20 -24 11z"/>
<path d="M5428 5923 c22 -9 12 -22 -20 -26 -25 -3 -22 -4 15 -5 45 -2 47 -1
35 18 -7 11 -20 20 -28 19 -10 0 -11 -2 -2 -6z"/>
</g>
</svg>
