<?xml version='1.0' encoding='utf-8'?>
<svg xmlns="http://www.w3.org/2000/svg" viewBox="134.574 296.609 121.848 282.535" width="122" height="283"><path fill-rule="nonzero" fill="rgb(40.783691%, 23.529053%, 6.274414%)" fill-opacity="1" stroke-width="1" stroke-linecap="butt" stroke-linejoin="miter" stroke="rgb(40.783691%, 23.529053%, 6.274414%)" stroke-opacity="1" stroke-miterlimit="10" d="M 0.000681834 0.000482307 C -1.203906 -20.825598 -4.661231 -37.416064 -4.661231 -37.416064 C 2.237774 -43.798817 1.768454 -47.748928 1.768454 -47.748928 L 1.385176 -138.21038 L -13.6448 -138.104783 C -40.814524 -138.437218 -29.23405 -178.873057 -29.23405 -178.873057 C -25.076656 -187.340374 -42.171641 -217.814893 -42.171641 -217.814893 C -42.171641 -217.814893 -50.455141 -232.786205 -44.533886 -253.139054 C -39.132794 -271.700665 -0.934047 -274.477475 5.73812 -274.825554 L 5.73812 -274.860753 C 5.73812 -274.860753 5.914115 -274.856842 6.238728 -274.84902 C 6.567252 -274.864664 6.739336 -274.868575 6.739336 -274.868575 L 6.739336 -274.829465 C 13.419326 -274.579161 51.653271 -272.349891 57.320312 -253.8665 C 63.530981 -233.603604 55.462586 -218.511052 55.462586 -218.511052 C 55.462586 -218.511052 38.801722 -187.797961 43.080357 -179.389309 C 43.080357 -179.389309 55.239659 -139.121643 28.077758 -138.402019 L 13.04387 -138.296422 L 13.955133 -47.838881 C 13.955133 -47.838881 13.544478 -43.877037 20.533437 -37.599881 C 20.533437 -37.599881 17.310772 -20.958572 16.407331 -0.116848 L 8.209873 -0.0581827 L 8.194229 -0.0581827 Z M 0.000681834 0.000482307 " transform="matrix(0.998785, 0, 0, -0.998785, 188.968069, 300.609857)" />
<path fill-rule="nonzero" fill="rgb(11.372375%, 11.372375%, 10.588074%)" fill-opacity="1" d="M 196.042969 474.675781 C 205.859375 474.746094 213.761719 482.761719 213.691406 492.578125 C 213.621094 502.394531 205.605469 510.296875 195.789062 510.226562 C 185.972656 510.15625 178.070312 502.144531 178.140625 492.324219 C 178.210938 482.507812 186.226562 474.605469 196.042969 474.675781 " />
<path fill="none" stroke-width="5" stroke-linecap="butt" stroke-linejoin="miter" stroke="rgb(57.647705%, 37.254333%, 21.176147%)" stroke-opacity="1" stroke-miterlimit="10" d="M 0.00030455 0.00136909 C 9.82865 -0.0690289 17.740605 -8.094403 17.670207 -17.922748 C 17.599809 -27.751094 9.574435 -35.663049 -0.253911 -35.592651 C -10.082256 -35.522253 -17.994211 -27.50079 -17.923813 -17.668533 C -17.853415 -7.840188 -9.828041 0.0717671 0.00030455 0.00136909 Z M 0.00030455 0.00136909 " transform="matrix(0.998785, 0, 0, -0.998785, 196.042665, 474.677149)" />
<path fill-rule="nonzero" fill="rgb(79.216003%, 61.961365%, 40.391541%)" fill-opacity="1" d="M 179.703125 547.328125 C 181.070312 546.976562 182.550781 546.910156 183.894531 546.972656 C 186.078125 547.078125 188.15625 547.828125 190.074219 548.886719 C 192.675781 550.320312 195.503906 550.253906 195.503906 550.253906 C 195.503906 550.253906 198.328125 550.359375 200.953125 548.964844 C 202.882812 547.933594 204.96875 547.210938 207.15625 547.140625 C 208.441406 547.097656 209.855469 547.175781 211.167969 547.507812 C 211.691406 547.640625 212.121094 547.3125 212.125 546.773438 L 212.152344 542.898438 C 212.15625 542.335938 211.699219 541.875 211.136719 541.871094 L 195.5625 541.757812 L 179.691406 541.644531 C 179.292969 541.644531 178.96875 541.960938 178.964844 542.363281 C 178.957031 543.460938 178.941406 545.550781 178.933594 546.71875 C 178.929688 547.125 179.308594 547.429688 179.703125 547.328125 " />
<path fill-rule="nonzero" fill="rgb(100%, 100%, 100%)" fill-opacity="1" d="M 190.535156 330.191406 C 191.699219 330.199219 192.636719 331.148438 192.628906 332.3125 C 192.617188 333.476562 191.667969 334.414062 190.503906 334.40625 C 189.339844 334.394531 188.40625 333.445312 188.414062 332.28125 C 188.421875 331.117188 189.371094 330.183594 190.535156 330.191406 " />
<path fill-rule="nonzero" fill="rgb(100%, 100%, 100%)" fill-opacity="1" d="M 192.097656 319.039062 C 193.261719 319.046875 194.195312 319.996094 194.1875 321.160156 C 194.179688 322.324219 193.230469 323.261719 192.066406 323.253906 C 190.902344 323.246094 189.964844 322.292969 189.972656 321.132812 C 189.980469 319.96875 190.933594 319.03125 192.097656 319.039062 " />
<path fill-rule="nonzero" fill="rgb(100%, 100%, 100%)" fill-opacity="1" d="M 193.425781 308.246094 C 194.589844 308.257812 195.523438 309.207031 195.515625 310.371094 C 195.507812 311.535156 194.558594 312.472656 193.394531 312.460938 C 192.230469 312.453125 191.292969 311.503906 191.300781 310.339844 C 191.308594 309.175781 192.261719 308.238281 193.425781 308.246094 " />
<path fill-rule="nonzero" fill="rgb(100%, 100%, 100%)" fill-opacity="1" d="M 203.476562 330.28125 C 202.3125 330.273438 201.359375 331.210938 201.351562 332.375 C 201.34375 333.539062 202.28125 334.488281 203.445312 334.496094 C 204.609375 334.503906 205.558594 333.570312 205.566406 332.40625 C 205.574219 331.242188 204.636719 330.289062 203.476562 330.28125 " />
<path fill-rule="nonzero" fill="rgb(100%, 100%, 100%)" fill-opacity="1" d="M 202.074219 319.109375 C 200.910156 319.101562 199.957031 320.039062 199.949219 321.203125 C 199.941406 322.367188 200.878906 323.316406 202.042969 323.324219 C 203.207031 323.332031 204.15625 322.394531 204.164062 321.234375 C 204.171875 320.070312 203.238281 319.117188 202.074219 319.109375 " />
<path fill-rule="nonzero" fill="rgb(100%, 100%, 100%)" fill-opacity="1" d="M 200.898438 308.300781 C 199.734375 308.292969 198.785156 309.230469 198.777344 310.394531 C 198.769531 311.558594 199.707031 312.507812 200.867188 312.515625 C 202.03125 312.523438 202.984375 311.585938 202.992188 310.421875 C 203 309.261719 202.0625 308.308594 200.898438 308.300781 " />
<path fill-rule="nonzero" fill="rgb(100%, 100%, 100%)" fill-opacity="1" d="M 201.808594 544.910156 C 201.792969 545.921875 200.960938 546.726562 199.953125 546.707031 L 190.074219 546.542969 C 189.066406 546.527344 188.261719 545.695312 188.277344 544.683594 C 188.296875 543.675781 189.128906 542.871094 190.136719 542.886719 L 200.011719 543.054688 C 201.023438 543.070312 201.828125 543.902344 201.808594 544.910156 " />
<path fill-rule="nonzero" fill="rgb(79.216003%, 61.961365%, 40.391541%)" fill-opacity="1" d="M 203.429688 349.121094 L 202.199219 474.316406 C 202.183594 475.914062 200.871094 477.199219 199.269531 477.183594 L 191.867188 477.113281 C 190.265625 477.097656 188.984375 475.785156 188.996094 474.183594 L 190.230469 348.992188 C 190.246094 347.390625 191.554688 346.105469 193.15625 346.121094 L 200.558594 346.195312 C 202.160156 346.210938 203.445312 347.519531 203.429688 349.121094 " />
<path fill="none" stroke-width="1" stroke-linecap="butt" stroke-linejoin="miter" stroke="rgb(57.647705%, 37.254333%, 21.176147%)" stroke-opacity="1" stroke-miterlimit="10" d="M -0.000816985 0.000798855 L 13.453026 -0.22995 " transform="matrix(0.998785, 0, 0, -0.998785, 189.71566, 389.055485)" />
<path fill="none" stroke-width="1" stroke-linecap="butt" stroke-linejoin="miter" stroke="rgb(57.647705%, 37.254333%, 21.176147%)" stroke-opacity="1" stroke-miterlimit="10" d="M -0.000757023 -0.00117537 L 13.453086 -0.228013 " transform="matrix(0.998785, 0, 0, -0.998785, 189.55935, 398.241014)" />
<path fill="none" stroke-width="1" stroke-linecap="butt" stroke-linejoin="miter" stroke="rgb(57.647705%, 37.254333%, 21.176147%)" stroke-opacity="1" stroke-miterlimit="10" d="M 0.000187973 0.000203515 L 13.454031 -0.230546 " transform="matrix(0.998785, 0, 0, -0.998785, 189.538875, 406.949422)" />
<path fill="none" stroke-width="1" stroke-linecap="butt" stroke-linejoin="miter" stroke="rgb(57.647705%, 37.254333%, 21.176147%)" stroke-opacity="1" stroke-miterlimit="10" d="M 0.000165971 0.0016824 L 13.454009 -0.229067 " transform="matrix(0.998785, 0, 0, -0.998785, 189.531084, 415.65793)" />
<path fill="none" stroke-width="1" stroke-linecap="butt" stroke-linejoin="miter" stroke="rgb(57.647705%, 37.254333%, 21.176147%)" stroke-opacity="1" stroke-miterlimit="10" d="M -0.00147407 0.00075317 L 13.452369 -0.229996 " transform="matrix(0.998785, 0, 0, -0.998785, 189.376472, 424.864034)" />
<path fill="none" stroke-width="1" stroke-linecap="butt" stroke-linejoin="miter" stroke="rgb(57.647705%, 37.254333%, 21.176147%)" stroke-opacity="1" stroke-miterlimit="10" d="M 0.00142286 0.000993011 L 13.451355 -0.229756 " transform="matrix(0.998785, 0, 0, -0.998785, 189.088423, 433.762711)" />
<path fill="none" stroke-width="1" stroke-linecap="butt" stroke-linejoin="miter" stroke="rgb(57.647705%, 37.254333%, 21.176147%)" stroke-opacity="1" stroke-miterlimit="10" d="M -0.0000109411 -0.000659615 L 13.453832 -0.227498 " transform="matrix(0.998785, 0, 0, -0.998785, 189.894542, 353.88606)" />
<path fill="none" stroke-width="1" stroke-linecap="butt" stroke-linejoin="miter" stroke="rgb(57.647705%, 37.254333%, 21.176147%)" stroke-opacity="1" stroke-miterlimit="10" d="M -0.000939978 -0.000338801 L 13.452903 -0.227177 " transform="matrix(0.998785, 0, 0, -0.998785, 189.743126, 362.898099)" />
<path fill="none" stroke-width="1" stroke-linecap="butt" stroke-linejoin="miter" stroke="rgb(57.647705%, 37.254333%, 21.176147%)" stroke-opacity="1" stroke-miterlimit="10" d="M -0.00134394 0.00107101 L 13.452499 -0.229678 " transform="matrix(0.998785, 0, 0, -0.998785, 189.884155, 371.915132)" />
<path fill="none" stroke-width="1" stroke-linecap="butt" stroke-linejoin="miter" stroke="rgb(57.647705%, 37.254333%, 21.176147%)" stroke-opacity="1" stroke-miterlimit="10" d="M 0.00112504 -0.00114207 L 13.451057 -0.22798 " transform="matrix(0.998785, 0, 0, -0.998785, 189.799658, 380.510578)" />
<path fill="none" stroke-width="1" stroke-linecap="butt" stroke-linejoin="miter" stroke="rgb(57.647705%, 37.254333%, 21.176147%)" stroke-opacity="1" stroke-miterlimit="10" d="M 0.00057886 0.00192185 L 13.454422 -0.228827 " transform="matrix(0.998785, 0, 0, -0.998785, 189.073641, 442.665982)" />
<path fill="none" stroke-width="1" stroke-linecap="butt" stroke-linejoin="miter" stroke="rgb(57.647705%, 37.254333%, 21.176147%)" stroke-opacity="1" stroke-miterlimit="10" d="M -0.0000441335 -0.000184293 L 13.453799 -0.230933 " transform="matrix(0.998785, 0, 0, -0.998785, 189.101607, 451.507628)" />
<path fill="none" stroke-width="1" stroke-linecap="butt" stroke-linejoin="miter" stroke="rgb(57.647705%, 37.254333%, 21.176147%)" stroke-opacity="1" stroke-miterlimit="10" d="M 0.0000158286 0.00175248 L 13.453859 -0.228997 " transform="matrix(0.998785, 0, 0, -0.998785, 188.945297, 460.693157)" />
<path fill="none" stroke-width="1" stroke-linecap="butt" stroke-linejoin="miter" stroke="rgb(57.647705%, 37.254333%, 21.176147%)" stroke-opacity="1" stroke-miterlimit="10" d="M 0.000987878 0.000428393 L 13.454831 -0.230321 " transform="matrix(0.998785, 0, 0, -0.998785, 189.147451, 469.293397)" />
<path fill="none" stroke-width="0.5" stroke-linecap="butt" stroke-linejoin="miter" stroke="rgb(100%, 100%, 100%)" stroke-opacity="1" stroke-miterlimit="10" d="M -0.000787423 0.000647783 L 1.911692 218.719465 C 1.923425 219.787168 1.978179 220.85096 2.079865 221.910842 L 3.448715 236.318969 " transform="matrix(0.998785, 0, 0, -0.998785, 196.15313, 546.020178)" />
<path fill="none" stroke-width="0.5" stroke-linecap="butt" stroke-linejoin="miter" stroke="rgb(100%, 100%, 100%)" stroke-opacity="1" stroke-miterlimit="10" d="M 0.000438121 -0.000453208 L 1.412309 214.44364 C 1.431864 217.599818 1.885541 220.732529 2.761605 223.763555 L 3.121417 225.007253 " transform="matrix(0.998785, 0, 0, -0.998785, 198.398, 545.983922)" />
<path fill="none" stroke-width="0.5" stroke-linecap="butt" stroke-linejoin="miter" stroke="rgb(100%, 100%, 100%)" stroke-opacity="1" stroke-miterlimit="10" d="M -0.00140036 -0.000420205 L 1.199277 205.604811 C 1.21101 207.5564 1.40656 209.500168 1.789838 211.412647 L 2.259158 213.794447 " transform="matrix(0.998785, 0, 0, -0.998785, 200.55218, 545.972237)" />
<path fill="none" stroke-width="0.5" stroke-linecap="butt" stroke-linejoin="miter" stroke="rgb(100%, 100%, 100%)" stroke-opacity="1" stroke-miterlimit="10" d="M 0.000529147 0.000212797 L 1.474977 218.722941 C 1.482799 219.790644 1.443688 220.854436 1.361557 221.914318 L 0.211723 236.342 " transform="matrix(0.998785, 0, 0, -0.998785, 194.382284, 545.96115)" />
<path fill="none" stroke-width="0.5" stroke-linecap="butt" stroke-linejoin="miter" stroke="rgb(100%, 100%, 100%)" stroke-opacity="1" stroke-miterlimit="10" d="M -0.0014964 -0.000489186 L 1.914894 214.439693 C 1.942271 217.595871 1.535527 220.736404 0.706395 223.779163 L 0.366138 225.026772 " transform="matrix(0.998785, 0, 0, -0.998785, 192.138213, 545.890136)" />
<path fill="none" stroke-width="0.5" stroke-linecap="butt" stroke-linejoin="miter" stroke="rgb(100%, 100%, 100%)" stroke-opacity="1" stroke-miterlimit="10" d="M -0.0000579194 0.00134283 L 1.986731 205.598752 C 2.006286 207.550341 1.838113 209.494109 1.490033 211.41441 L 1.052001 213.804032 " transform="matrix(0.998785, 0, 0, -0.998785, 189.984433, 545.845091)" />
</svg>