<?xml version="1.0" encoding="UTF-8"?>
<svg xmlns="http://www.w3.org/2000/svg" xmlns:xlink="http://www.w3.org/1999/xlink" width="200px" height="150px" viewBox="0 0 302 150" version="1.1">
<g id="surface1">
<path style=" stroke:none;fill-rule:nonzero;fill:rgb(82.352942%,47.058824%,6.666667%);fill-opacity:1;" d="M 119.347656 51.304688 L 104.902344 51.304688 L 104.902344 139.59375 C 104.902344 142.101562 106.929688 144.132812 109.429688 144.132812 L 114.824219 144.132812 C 117.320312 144.132812 119.347656 142.101562 119.347656 139.59375 Z M 119.347656 51.304688 "/>
<path style=" stroke:none;fill-rule:nonzero;fill:rgb(98.823529%,89.803922%,62.7451%);fill-opacity:1;" d="M 115.835938 46.351562 L 114.351562 46.351562 L 114.351562 42.6875 L 117.519531 42.6875 C 118.921875 42.6875 120.070312 41.539062 120.070312 40.128906 C 120.070312 38.71875 118.921875 37.566406 117.519531 37.566406 L 106.734375 37.566406 C 105.328125 37.566406 104.179688 38.71875 104.179688 40.128906 C 104.179688 41.539062 105.328125 42.6875 106.734375 42.6875 L 109.898438 42.6875 L 109.898438 46.351562 L 108.414062 46.351562 C 106.179688 46.351562 104.371094 48.167969 104.371094 50.410156 L 104.371094 52.070312 L 119.878906 52.070312 L 119.878906 50.410156 C 119.878906 48.167969 118.070312 46.351562 115.835938 46.351562 "/>
<path style="fill:none;stroke-width:0.25;stroke-linecap:butt;stroke-linejoin:miter;stroke:rgb(57.647061%,37.254903%,21.176471%);stroke-opacity:1;stroke-miterlimit:10;" d="M -0.00088039 0.000625902 L -1.017038 0.000625902 L -1.017038 2.501138 L 1.151656 2.501138 C 2.111658 2.501138 2.897843 3.28488 2.897843 4.247231 C 2.897843 5.209581 2.111658 5.99599 1.151656 5.99599 L -6.231531 5.99599 C -7.194206 5.99599 -7.980391 5.209581 -7.980391 4.247231 C -7.980391 3.28488 -7.194206 2.501138 -6.231531 2.501138 L -4.065511 2.501138 L -4.065511 0.000625902 L -5.081668 0.000625902 C -6.611253 0.000625902 -7.84936 -1.238967 -7.84936 -2.769131 L -7.84936 -3.902092 L 2.766812 -3.902092 L 2.766812 -2.769131 C 2.766812 -1.238967 1.528704 0.000625902 -0.00088039 0.000625902 Z M -0.00088039 0.000625902 " transform="matrix(1.460773,0,0,-1.465325,115.837224,46.35248)"/>
<path style=" stroke:none;fill-rule:nonzero;fill:rgb(82.352942%,47.058824%,6.666667%);fill-opacity:1;" d="M 99.1875 51.304688 L 84.738281 51.304688 L 84.738281 139.59375 C 84.738281 142.101562 86.769531 144.132812 89.265625 144.132812 L 94.65625 144.132812 C 97.160156 144.132812 99.1875 142.101562 99.1875 139.59375 Z M 99.1875 51.304688 "/>
<path style=" stroke:none;fill-rule:nonzero;fill:rgb(98.823529%,89.803922%,62.7451%);fill-opacity:1;" d="M 95.675781 46.351562 L 94.1875 46.351562 L 94.1875 42.6875 L 97.355469 42.6875 C 98.757812 42.6875 99.90625 41.539062 99.90625 40.128906 C 99.90625 38.71875 98.757812 37.566406 97.355469 37.566406 L 86.566406 37.566406 C 85.167969 37.566406 84.019531 38.71875 84.019531 40.128906 C 84.019531 41.539062 85.167969 42.6875 86.566406 42.6875 L 89.738281 42.6875 L 89.738281 46.351562 L 88.253906 46.351562 C 86.019531 46.351562 84.207031 48.167969 84.207031 50.410156 L 84.207031 52.070312 L 99.71875 52.070312 L 99.71875 50.410156 C 99.71875 48.167969 97.910156 46.351562 95.675781 46.351562 "/>
<path style="fill:none;stroke-width:0.25;stroke-linecap:butt;stroke-linejoin:miter;stroke:rgb(57.647061%,37.254903%,21.176471%);stroke-opacity:1;stroke-miterlimit:10;" d="M 0.000303847 0.000625902 L -1.018528 0.000625902 L -1.018528 2.501138 L 1.150166 2.501138 C 2.110168 2.501138 2.896353 3.28488 2.896353 4.247231 C 2.896353 5.209581 2.110168 5.99599 1.150166 5.99599 L -6.235694 5.99599 C -7.193022 5.99599 -7.979207 5.209581 -7.979207 4.247231 C -7.979207 3.28488 -7.193022 2.501138 -6.235694 2.501138 L -4.064326 2.501138 L -4.064326 0.000625902 L -5.080484 0.000625902 C -6.610068 0.000625902 -7.85085 -1.238967 -7.85085 -2.769131 L -7.85085 -3.902092 L 2.767996 -3.902092 L 2.767996 -2.769131 C 2.767996 -1.238967 1.529888 0.000625902 0.000303847 0.000625902 Z M 0.000303847 0.000625902 " transform="matrix(1.460773,0,0,-1.465325,95.675337,46.35248)"/>
<path style=" stroke:none;fill-rule:nonzero;fill:rgb(82.352942%,47.058824%,6.666667%);fill-opacity:1;" d="M 139.769531 51.304688 L 125.320312 51.304688 L 125.320312 139.59375 C 125.320312 142.101562 127.347656 144.132812 129.851562 144.132812 L 135.242188 144.132812 C 137.738281 144.132812 139.769531 142.101562 139.769531 139.59375 Z M 139.769531 51.304688 "/>
<path style=" stroke:none;fill-rule:nonzero;fill:rgb(98.823529%,89.803922%,62.7451%);fill-opacity:1;" d="M 136.253906 46.351562 L 134.769531 46.351562 L 134.769531 42.6875 L 137.941406 42.6875 C 139.339844 42.6875 140.488281 41.539062 140.488281 40.128906 C 140.488281 38.71875 139.339844 37.566406 137.941406 37.566406 L 127.152344 37.566406 C 125.75 37.566406 124.601562 38.71875 124.601562 40.128906 C 124.601562 41.539062 125.75 42.6875 127.152344 42.6875 L 130.320312 42.6875 L 130.320312 46.351562 L 128.832031 46.351562 C 126.597656 46.351562 124.789062 48.167969 124.789062 50.410156 L 124.789062 52.070312 L 140.300781 52.070312 L 140.300781 50.410156 C 140.300781 48.167969 138.488281 46.351562 136.253906 46.351562 "/>
<path style="fill:none;stroke-width:0.25;stroke-linecap:butt;stroke-linejoin:miter;stroke:rgb(57.647061%,37.254903%,21.176471%);stroke-opacity:1;stroke-miterlimit:10;" d="M -0.00137058 0.000625902 L -1.017528 0.000625902 L -1.017528 2.501138 L 1.15384 2.501138 C 2.111167 2.501138 2.897352 3.28488 2.897352 4.247231 C 2.897352 5.209581 2.111167 5.99599 1.15384 5.99599 L -6.232021 5.99599 C -7.192022 5.99599 -7.978207 5.209581 -7.978207 4.247231 C -7.978207 3.28488 -7.192022 2.501138 -6.232021 2.501138 L -4.063327 2.501138 L -4.063327 0.000625902 L -5.082158 0.000625902 C -6.611743 0.000625902 -7.84985 -1.238967 -7.84985 -2.769131 L -7.84985 -3.902092 L 2.768996 -3.902092 L 2.768996 -2.769131 C 2.768996 -1.238967 1.528214 0.000625902 -0.00137058 0.000625902 Z M -0.00137058 0.000625902 " transform="matrix(1.460773,0,0,-1.465325,136.255908,46.35248)"/>
<path style=" stroke:none;fill-rule:nonzero;fill:rgb(95.294118%,57.254905%,0%);fill-opacity:1;" d="M 191.941406 89.550781 C 191.941406 95.304688 190.96875 101.050781 188.71875 106.34375 C 180.742188 125.089844 163.625 124.667969 163.625 124.667969 L 77.699219 124.667969 C 77.324219 124.667969 76.941406 124.648438 76.570312 124.601562 C 62.054688 122.714844 54.921875 112.039062 51.765625 105.074219 C 50.3125 101.867188 49.585938 98.386719 49.585938 94.867188 L 49.585938 67.28125 L 191.941406 67.28125 Z M 284.480469 12.402344 C 266.25 36.503906 237.332031 45.863281 222.417969 49.226562 C 217.304688 50.378906 212.09375 50.953125 206.863281 50.953125 L 16.34375 50.953125 L 16.34375 67.28125 L 36.371094 67.085938 L 36.761719 100.707031 C 40.417969 129.109375 66.617188 132.980469 66.617188 132.980469 L 170.253906 132.980469 C 198.183594 128.921875 201.085938 99.535156 201.085938 99.535156 L 201.269531 67.488281 L 210.363281 67.617188 C 212.710938 67.652344 215.066406 67.859375 217.386719 68.242188 C 259.714844 75.207031 285.445312 105.914062 285.445312 105.914062 C 293.535156 51.132812 284.480469 12.402344 284.480469 12.402344 "/>
<path style="fill:none;stroke-width:1;stroke-linecap:butt;stroke-linejoin:miter;stroke:rgb(57.647061%,37.254903%,21.176471%);stroke-opacity:1;stroke-miterlimit:10;" d="M -0.00051834 -0.00104962 C -0.00051834 -3.92776 -0.666369 -7.849138 -2.20665 -11.461285 C -7.667159 -24.254415 -19.38506 -23.96651 -19.38506 -23.96651 L -78.207211 -23.96651 C -78.463924 -23.96651 -78.725986 -23.953181 -78.980025 -23.921191 C -88.916976 -22.633614 -93.799881 -15.348008 -95.960552 -10.594903 C -96.955317 -8.406288 -97.4527 -6.031069 -97.4527 -3.629191 L -97.4527 15.196624 L -0.00051834 15.196624 Z M 63.348881 52.64832 C 50.868862 36.200391 31.072509 29.813156 20.8628 27.51791 C 17.362405 26.731501 13.795157 26.33963 10.214539 26.33963 L -120.20928 26.33963 L -120.20928 15.196624 L -106.499176 15.329914 L -106.231766 -7.614548 C -103.728809 -26.997514 -85.793629 -29.639313 -85.793629 -29.639313 L -14.847115 -29.639313 C 4.272691 -26.869556 6.259547 -6.814811 6.259547 -6.814811 L 6.38523 15.055337 L 12.610531 14.967366 C 14.217665 14.943374 15.830146 14.802087 17.418561 14.54084 C 46.395095 9.787735 64.009384 -11.168048 64.009384 -11.168048 C 69.547442 26.217004 63.348881 52.64832 63.348881 52.64832 Z M 63.348881 52.64832 " transform="matrix(1.460773,0,0,-1.465325,191.942163,89.549243)"/>
<path style=" stroke:none;fill-rule:nonzero;fill:rgb(82.352942%,47.058824%,6.666667%);fill-opacity:1;" d="M 282.804688 9.691406 C 284.023438 18.210938 291.089844 71.574219 282.6875 108.285156 C 282.320312 109.902344 283.210938 112 284.886719 111.96875 C 284.933594 111.96875 284.972656 112.011719 285.011719 112 C 287.835938 111.226562 288.152344 108.140625 288.34375 105.945312 C 288.429688 104.960938 288.53125 103.980469 288.667969 102.996094 C 290 93.464844 295.757812 46.890625 287.113281 7.941406 C 287.113281 7.941406 285.605469 5.867188 283.886719 7.050781 C 283.039062 7.628906 282.664062 8.675781 282.804688 9.691406 "/>
<path style=" stroke:none;fill-rule:nonzero;fill:rgb(82.352942%,47.058824%,6.666667%);fill-opacity:1;" d="M 12.023438 72.691406 C 8.828125 72.691406 6.242188 70.09375 6.242188 66.890625 L 6.242188 50.464844 C 6.242188 47.269531 8.828125 44.671875 12.023438 44.671875 C 15.210938 44.671875 17.800781 47.269531 17.800781 50.464844 L 17.800781 66.890625 C 17.800781 70.09375 15.210938 72.691406 12.023438 72.691406 "/>
</g>
</svg>
