<?xml version='1.0' encoding='utf-8'?>
<svg xmlns="http://www.w3.org/2000/svg" viewBox="281.438 295.414 121.848 282.535" width="122" height="283"><path fill-rule="nonzero" fill="rgb(68.235779%, 42.352295%, 21.176147%)" fill-opacity="1" d="M 335.832031 299.414062 C 334.628906 320.214844 331.175781 336.785156 331.175781 336.785156 C 338.066406 343.15625 337.597656 347.105469 337.597656 347.105469 L 337.214844 437.457031 L 322.203125 437.351562 C 295.066406 437.683594 306.632812 478.070312 306.632812 478.070312 C 310.785156 486.527344 293.710938 516.964844 293.710938 516.964844 C 293.710938 516.964844 285.4375 531.917969 291.351562 552.246094 C 296.746094 570.785156 334.898438 573.558594 341.5625 573.902344 L 341.5625 573.941406 C 341.5625 573.941406 341.738281 573.9375 342.0625 573.929688 C 342.390625 573.941406 342.5625 573.949219 342.5625 573.949219 L 342.5625 573.910156 C 349.234375 573.664062 387.421875 571.433594 393.082031 552.972656 C 399.285156 532.734375 391.226562 517.660156 391.226562 517.660156 C 391.226562 517.660156 374.585938 486.984375 378.859375 478.585938 C 378.859375 478.585938 391.003906 438.367188 363.875 437.648438 L 348.859375 437.539062 L 349.769531 347.191406 C 349.769531 347.191406 349.359375 343.238281 356.339844 336.964844 C 356.339844 336.964844 353.121094 320.347656 352.21875 299.53125 L 344.03125 299.472656 L 344.015625 299.472656 Z M 335.832031 299.414062 " />
<path fill-rule="nonzero" fill="rgb(11.372375%, 11.372375%, 10.588074%)" fill-opacity="1" d="M 342.90625 473.480469 C 352.722656 473.550781 360.625 481.566406 360.554688 491.382812 C 360.484375 501.199219 352.46875 509.101562 342.652344 509.03125 C 332.835938 508.960938 324.933594 500.945312 325.003906 491.128906 C 325.074219 481.3125 333.089844 473.410156 342.90625 473.480469 " />
<path fill="none" stroke-width="5" stroke-linecap="butt" stroke-linejoin="miter" stroke="rgb(57.647705%, 37.254333%, 21.176147%)" stroke-opacity="1" stroke-miterlimit="10" d="M 0.000407172 0.000935378 C 9.828753 -0.0694626 17.740707 -8.094837 17.670309 -17.923182 C 17.599911 -27.751527 9.574537 -35.663482 -0.253808 -35.593084 C -10.082153 -35.522686 -17.994108 -27.497312 -17.92371 -17.668967 C -17.853312 -7.840622 -9.827938 0.0713334 0.000407172 0.000935378 Z M 0.000407172 0.000935378 " transform="matrix(0.998785, 0, 0, -0.998785, 342.905843, 473.481403)" />
<path fill-rule="nonzero" fill="rgb(79.216003%, 61.961365%, 40.391541%)" fill-opacity="1" d="M 326.566406 546.132812 C 327.933594 545.78125 329.414062 545.714844 330.757812 545.777344 C 332.941406 545.882812 335.019531 546.632812 336.933594 547.691406 C 339.539062 549.125 342.367188 549.058594 342.367188 549.058594 C 342.367188 549.058594 345.191406 549.164062 347.816406 547.765625 C 349.746094 546.738281 351.832031 546.015625 354.019531 545.945312 C 355.304688 545.902344 356.71875 545.980469 358.03125 546.3125 C 358.554688 546.445312 358.984375 546.117188 358.988281 545.578125 L 359.015625 541.703125 C 359.019531 541.136719 358.5625 540.679688 358 540.675781 L 342.425781 540.5625 L 326.554688 540.449219 C 326.15625 540.445312 325.828125 540.765625 325.828125 541.167969 C 325.820312 542.265625 325.804688 544.351562 325.796875 545.523438 C 325.792969 545.929688 326.171875 546.234375 326.566406 546.132812 " />
<path fill-rule="nonzero" fill="rgb(100%, 100%, 100%)" fill-opacity="1" d="M 337.398438 328.996094 C 338.5625 329.003906 339.5 329.953125 339.492188 331.117188 C 339.480469 332.28125 338.53125 333.21875 337.367188 333.210938 C 336.203125 333.199219 335.269531 332.25 335.277344 331.085938 C 335.285156 329.921875 336.234375 328.988281 337.398438 328.996094 " />
<path fill-rule="nonzero" fill="rgb(100%, 100%, 100%)" fill-opacity="1" d="M 338.960938 317.84375 C 340.125 317.851562 341.058594 318.800781 341.050781 319.964844 C 341.042969 321.128906 340.09375 322.066406 338.929688 322.058594 C 337.765625 322.050781 336.828125 321.097656 336.835938 319.933594 C 336.84375 318.773438 337.796875 317.835938 338.960938 317.84375 " />
<path fill-rule="nonzero" fill="rgb(100%, 100%, 100%)" fill-opacity="1" d="M 340.289062 307.050781 C 341.453125 307.058594 342.386719 308.011719 342.378906 309.175781 C 342.371094 310.339844 341.421875 311.273438 340.257812 311.265625 C 339.09375 311.257812 338.15625 310.308594 338.164062 309.144531 C 338.171875 307.980469 339.125 307.042969 340.289062 307.050781 " />
<path fill-rule="nonzero" fill="rgb(100%, 100%, 100%)" fill-opacity="1" d="M 350.339844 329.085938 C 349.175781 329.078125 348.222656 330.015625 348.214844 331.179688 C 348.207031 332.34375 349.144531 333.292969 350.308594 333.300781 C 351.472656 333.308594 352.421875 332.371094 352.429688 331.210938 C 352.4375 330.046875 351.5 329.09375 350.339844 329.085938 " />
<path fill-rule="nonzero" fill="rgb(100%, 100%, 100%)" fill-opacity="1" d="M 348.9375 317.914062 C 347.773438 317.90625 346.820312 318.84375 346.8125 320.007812 C 346.804688 321.171875 347.742188 322.121094 348.90625 322.128906 C 350.070312 322.136719 351.019531 321.199219 351.027344 320.035156 C 351.035156 318.875 350.101562 317.921875 348.9375 317.914062 " />
<path fill-rule="nonzero" fill="rgb(100%, 100%, 100%)" fill-opacity="1" d="M 347.761719 307.105469 C 346.597656 307.097656 345.648438 308.035156 345.640625 309.199219 C 345.632812 310.363281 346.570312 311.3125 347.730469 311.320312 C 348.894531 311.328125 349.84375 310.390625 349.855469 309.226562 C 349.863281 308.0625 348.925781 307.113281 347.761719 307.105469 " />
<path fill-rule="nonzero" fill="rgb(100%, 100%, 100%)" fill-opacity="1" d="M 348.671875 543.714844 C 348.65625 544.726562 347.824219 545.53125 346.816406 545.511719 L 336.9375 545.347656 C 335.929688 545.328125 335.125 544.496094 335.140625 543.488281 C 335.15625 542.480469 335.988281 541.675781 337 541.691406 L 346.875 541.859375 C 347.886719 541.875 348.691406 542.707031 348.671875 543.714844 " />
<path fill-rule="nonzero" fill="rgb(79.216003%, 61.961365%, 40.391541%)" fill-opacity="1" d="M 350.292969 347.925781 L 349.0625 473.121094 C 349.042969 474.71875 347.734375 476.003906 346.132812 475.988281 L 338.730469 475.917969 C 337.128906 475.898438 335.847656 474.589844 335.859375 472.988281 L 337.09375 347.792969 C 337.109375 346.195312 338.417969 344.910156 340.019531 344.925781 L 347.421875 345 C 349.023438 345.015625 350.308594 346.324219 350.292969 347.925781 " />
<path fill="none" stroke-width="1" stroke-linecap="butt" stroke-linejoin="miter" stroke="rgb(57.647705%, 37.254333%, 21.176147%)" stroke-opacity="1" stroke-miterlimit="10" d="M -0.000714363 0.000365145 L 13.453129 -0.230384 " transform="matrix(0.998785, 0, 0, -0.998785, 336.578838, 387.85974)" />
<path fill="none" stroke-width="1" stroke-linecap="butt" stroke-linejoin="miter" stroke="rgb(57.647705%, 37.254333%, 21.176147%)" stroke-opacity="1" stroke-miterlimit="10" d="M -0.000654401 -0.00160908 L 13.453189 -0.228447 " transform="matrix(0.998785, 0, 0, -0.998785, 336.422529, 397.045268)" />
<path fill="none" stroke-width="1" stroke-linecap="butt" stroke-linejoin="miter" stroke="rgb(57.647705%, 37.254333%, 21.176147%)" stroke-opacity="1" stroke-miterlimit="10" d="M 0.000290594 -0.000330195 L 13.454134 -0.227168 " transform="matrix(0.998785, 0, 0, -0.998785, 336.402054, 405.753576)" />
<path fill="none" stroke-width="1" stroke-linecap="butt" stroke-linejoin="miter" stroke="rgb(57.647705%, 37.254333%, 21.176147%)" stroke-opacity="1" stroke-miterlimit="10" d="M 0.000268592 0.00124869 L 13.454112 -0.2295 " transform="matrix(0.998785, 0, 0, -0.998785, 336.394263, 414.462185)" />
<path fill="none" stroke-width="1" stroke-linecap="butt" stroke-linejoin="miter" stroke="rgb(57.647705%, 37.254333%, 21.176147%)" stroke-opacity="1" stroke-miterlimit="10" d="M -0.00137145 0.00031946 L 13.452472 -0.23043 " transform="matrix(0.998785, 0, 0, -0.998785, 336.239651, 423.668288)" />
<path fill="none" stroke-width="1" stroke-linecap="butt" stroke-linejoin="miter" stroke="rgb(57.647705%, 37.254333%, 21.176147%)" stroke-opacity="1" stroke-miterlimit="10" d="M 0.00152549 0.000559301 L 13.451458 -0.23019 " transform="matrix(0.998785, 0, 0, -0.998785, 335.951601, 432.566965)" />
<path fill="none" stroke-width="1" stroke-linecap="butt" stroke-linejoin="miter" stroke="rgb(57.647705%, 37.254333%, 21.176147%)" stroke-opacity="1" stroke-miterlimit="10" d="M 0.0000916805 -0.00119333 L 13.453935 -0.228031 " transform="matrix(0.998785, 0, 0, -0.998785, 336.757721, 352.690214)" />
<path fill="none" stroke-width="1" stroke-linecap="butt" stroke-linejoin="miter" stroke="rgb(57.647705%, 37.254333%, 21.176147%)" stroke-opacity="1" stroke-miterlimit="10" d="M -0.000837356 -0.000772511 L 13.453006 -0.227611 " transform="matrix(0.998785, 0, 0, -0.998785, 336.606305, 361.702353)" />
<path fill="none" stroke-width="1" stroke-linecap="butt" stroke-linejoin="miter" stroke="rgb(57.647705%, 37.254333%, 21.176147%)" stroke-opacity="1" stroke-miterlimit="10" d="M -0.00124132 0.000637302 L 13.452602 -0.230112 " transform="matrix(0.998785, 0, 0, -0.998785, 336.747334, 370.719387)" />
<path fill="none" stroke-width="1" stroke-linecap="butt" stroke-linejoin="miter" stroke="rgb(57.647705%, 37.254333%, 21.176147%)" stroke-opacity="1" stroke-miterlimit="10" d="M 0.00122766 -0.00157578 L 13.45116 -0.228414 " transform="matrix(0.998785, 0, 0, -0.998785, 336.662836, 379.314832)" />
<path fill="none" stroke-width="1" stroke-linecap="butt" stroke-linejoin="miter" stroke="rgb(57.647705%, 37.254333%, 21.176147%)" stroke-opacity="1" stroke-miterlimit="10" d="M 0.000681482 0.00148814 L 13.454525 -0.229261 " transform="matrix(0.998785, 0, 0, -0.998785, 335.936819, 441.470236)" />
<path fill="none" stroke-width="1" stroke-linecap="butt" stroke-linejoin="miter" stroke="rgb(57.647705%, 37.254333%, 21.176147%)" stroke-opacity="1" stroke-miterlimit="10" d="M 0.0000584882 -0.000618003 L 13.453902 -0.227456 " transform="matrix(0.998785, 0, 0, -0.998785, 335.964785, 450.311883)" />
<path fill="none" stroke-width="1" stroke-linecap="butt" stroke-linejoin="miter" stroke="rgb(57.647705%, 37.254333%, 21.176147%)" stroke-opacity="1" stroke-miterlimit="10" d="M 0.00011845 0.00131877 L 13.453962 -0.22943 " transform="matrix(0.998785, 0, 0, -0.998785, 335.808475, 459.497411)" />
<path fill="none" stroke-width="1" stroke-linecap="butt" stroke-linejoin="miter" stroke="rgb(57.647705%, 37.254333%, 21.176147%)" stroke-opacity="1" stroke-miterlimit="10" d="M 0.0010905 -0.00000531686 L 13.454934 -0.230754 " transform="matrix(0.998785, 0, 0, -0.998785, 336.01063, 468.097651)" />
<path fill="none" stroke-width="0.5" stroke-linecap="butt" stroke-linejoin="miter" stroke="rgb(100%, 100%, 100%)" stroke-opacity="1" stroke-miterlimit="10" d="M -0.000584802 0.000114073 L 1.911895 218.718931 C 1.923628 219.786634 1.978382 220.850427 2.080068 221.910308 L 3.448918 236.318435 " transform="matrix(0.998785, 0, 0, -0.998785, 343.016209, 544.824333)" />
<path fill="none" stroke-width="0.5" stroke-linecap="butt" stroke-linejoin="miter" stroke="rgb(100%, 100%, 100%)" stroke-opacity="1" stroke-miterlimit="10" d="M 0.000540743 -0.000886918 L 1.412412 214.443206 C 1.431967 217.599384 1.885643 220.732096 2.761707 223.763121 L 3.121519 225.00682 " transform="matrix(0.998785, 0, 0, -0.998785, 345.261179, 544.788177)" />
<path fill="none" stroke-width="0.5" stroke-linecap="butt" stroke-linejoin="miter" stroke="rgb(100%, 100%, 100%)" stroke-opacity="1" stroke-miterlimit="10" d="M -0.00129773 -0.000853915 L 1.19938 205.604377 C 1.211113 207.555966 1.406663 209.499734 1.789941 211.412213 L 2.259261 213.794013 " transform="matrix(0.998785, 0, 0, -0.998785, 347.415359, 544.776491)" />
<path fill="none" stroke-width="0.5" stroke-linecap="butt" stroke-linejoin="miter" stroke="rgb(100%, 100%, 100%)" stroke-opacity="1" stroke-miterlimit="10" d="M 0.000631769 -0.000220913 L 1.475079 218.722507 C 1.482901 219.79021 1.443791 220.854003 1.36166 221.917795 L 0.211826 236.341566 " transform="matrix(0.998785, 0, 0, -0.998785, 341.245463, 544.765404)" />
<path fill="none" stroke-width="0.5" stroke-linecap="butt" stroke-linejoin="miter" stroke="rgb(100%, 100%, 100%)" stroke-opacity="1" stroke-miterlimit="10" d="M -0.00139378 -0.000922896 L 1.911086 214.439259 C 1.942374 217.595437 1.53563 220.735971 0.706497 223.778729 L 0.36624 225.026339 " transform="matrix(0.998785, 0, 0, -0.998785, 339.001392, 544.694391)" />
<path fill="none" stroke-width="0.5" stroke-linecap="butt" stroke-linejoin="miter" stroke="rgb(100%, 100%, 100%)" stroke-opacity="1" stroke-miterlimit="10" d="M 0.0000447023 0.000909116 L 1.986833 205.598318 C 2.006388 207.549907 1.838215 209.497586 1.490136 211.413976 L 1.052104 213.803598 " transform="matrix(0.998785, 0, 0, -0.998785, 336.847612, 544.649346)" />
</svg>