<svg xmlns="http://www.w3.org/2000/svg" viewBox="0 0 400 300">
  <rect width="400" height="300" fill="#efe2cb"/>
  <g transform="translate(80,40)">
    <rect width="240" height="180" fill="#1a0d05" rx="4"/>
    <rect x="10" y="10" width="220" height="50" fill="#2a160a" rx="2"/>
    <text x="120" y="42" text-anchor="middle" font-family="Georgia, serif" font-style="italic" font-size="20" fill="#b8862d">YAMAHA</text>
    <rect x="10" y="80" width="220" height="60" fill="#fbf3df"/>
    <g fill="none" stroke="#1a0d05" stroke-width="1">
      <line x1="32" y1="80" x2="32" y2="140"/>
      <line x1="54" y1="80" x2="54" y2="140"/>
      <line x1="76" y1="80" x2="76" y2="140"/>
      <line x1="98" y1="80" x2="98" y2="140"/>
      <line x1="120" y1="80" x2="120" y2="140"/>
      <line x1="142" y1="80" x2="142" y2="140"/>
      <line x1="164" y1="80" x2="164" y2="140"/>
      <line x1="186" y1="80" x2="186" y2="140"/>
      <line x1="208" y1="80" x2="208" y2="140"/>
    </g>
    <g fill="#1a0d05">
      <rect x="22" y="80" width="14" height="36"/>
      <rect x="44" y="80" width="14" height="36"/>
      <rect x="88" y="80" width="14" height="36"/>
      <rect x="110" y="80" width="14" height="36"/>
      <rect x="132" y="80" width="14" height="36"/>
      <rect x="176" y="80" width="14" height="36"/>
      <rect x="198" y="80" width="14" height="36"/>
    </g>
    <rect x="10" y="150" width="220" height="20" fill="#0a0807"/>
  </g>
</svg>